<svg width="80" height="80" viewBox="0 0 80 80" fill="none" xmlns="http://www.w3.org/2000/svg">
<g id="clock (1) 1">
<g id="Group">
<g id="Group_2">
<path id="Vector" d="M64.3261 15.6755C57.8288 9.17825 49.1901 5.59998 40.0016 5.59998C30.813 5.59998 22.1743 9.17825 15.677 15.6755C9.1797 22.1728 5.60156 30.8114 5.60156 40C5.60156 49.1885 9.1797 57.8272 15.677 64.3244C22.1743 70.8216 30.813 74.4 40.0016 74.4C49.1901 74.4 57.8288 70.8217 64.3261 64.3244C70.8234 57.8271 74.4016 49.1885 74.4016 40C74.4016 30.8114 70.8234 22.1727 64.3261 15.6755ZM40.0016 67.6479C24.7563 67.6479 12.3536 55.2451 12.3536 40C12.3536 39.975 12.3544 39.9503 12.3546 39.9255C12.3546 39.9192 12.3536 39.9132 12.3536 39.9069C12.3536 39.8962 12.355 39.886 12.3552 39.8755C12.4223 24.813 24.5949 12.5585 39.6259 12.3569C39.6573 12.3554 39.6885 12.3522 39.7203 12.3522C39.7394 12.3522 39.7579 12.3545 39.7769 12.355C39.8519 12.3545 39.9266 12.3522 40.0017 12.3522C55.2469 12.3522 67.6496 24.755 67.6496 40.0001C67.6496 55.2452 55.2468 67.6479 40.0016 67.6479Z" fill="white"/>
</g>
</g>
<g id="Group_3">
<g id="Group_4">
<path id="Vector_2" d="M61.0054 41.661C59.8812 41.661 58.9699 40.7497 58.9699 39.6255C58.9699 38.5013 59.8812 37.59 61.0054 37.59H63.459C62.3066 26.2923 53.1441 17.3299 41.7585 16.4884V18.6243C41.7585 19.7485 40.8472 20.6598 39.723 20.6598C38.5988 20.6598 37.6875 19.7485 37.6875 18.6243V16.537C26.4704 17.6362 17.5354 26.6289 16.5245 37.8712H18.7218C19.846 37.8712 20.7573 38.7826 20.7573 39.9067C20.7573 41.0309 19.846 41.9423 18.7218 41.9423H16.5078C17.4437 53.3656 26.5579 62.5077 37.9688 63.4882V60.9078C37.9688 59.7836 38.8802 58.8723 40.0044 58.8723C41.1285 58.8723 42.0399 59.7836 42.0399 60.9078V63.4882C53.5443 62.4996 62.7139 53.2151 63.522 41.661H61.0054ZM48.2442 34.6388L41.4438 41.4394C41.062 41.8212 40.5444 42.0356 40.0045 42.0356C39.4647 42.0356 38.9468 41.8212 38.5652 41.4394L26.7277 29.6019C25.9327 28.8071 25.9327 27.5183 26.7277 26.7233C27.5225 25.9284 28.8113 25.9284 29.6063 26.7233L40.0046 37.1216L45.3659 31.7603C46.1607 30.9653 47.4495 30.9653 48.2445 31.7603C49.0392 32.5551 49.0392 33.844 48.2442 34.6388Z" fill="white"/>
</g>
</g>
</g>
</svg>
