<svg width="80" height="80" viewBox="0 0 80 80" fill="none" xmlns="http://www.w3.org/2000/svg">
<g id="money 1">
<path id="Vector" d="M60.608 21.0312H7.2L7.968 16.0792C8.24 14.3352 9.872 13.1352 11.616 13.4072L60.608 21.0312ZM60 43.0312C58.8969 43.0312 58 43.9285 58 45.0312C58 46.134 58.8969 47.0312 60 47.0312C61.1031 47.0312 62 46.134 62 45.0312C62 43.9285 61.1031 43.0312 60 43.0312ZM76 26.6312V63.4312C76 65.1986 74.5674 66.6312 72.8 66.6312H7.2C5.43264 66.6312 4 65.1986 4 63.4312V26.6312C4 24.8639 5.43264 23.4312 7.2 23.4312H72.8C74.5674 23.4312 76 24.8639 76 26.6312ZM70.8 34.6312C70.8 33.9684 70.2625 33.4312 69.6 33.4312C67.6149 33.4312 66 31.8164 66 29.8312C66 29.1684 65.4625 28.6312 64.8 28.6312H15.2C14.5371 28.6312 14 29.1684 14 29.8312C14 31.8164 12.3851 33.4312 10.4 33.4312C9.73712 33.4312 9.2 33.9684 9.2 34.6312V55.4312C9.2 56.0941 9.73712 56.6312 10.4 56.6312C12.3851 56.6312 14 58.2461 14 60.2312C14 60.8941 14.5371 61.4312 15.2 61.4312H64.8C65.4625 61.4312 66 60.8941 66 60.2312C66 58.2461 67.6149 56.6312 69.6 56.6312C70.2625 56.6312 70.8 56.0941 70.8 55.4312V34.6312ZM20 43.0312C18.8973 43.0312 18 43.9285 18 45.0312C18 46.134 18.8973 47.0312 20 47.0312C21.1027 47.0312 22 46.134 22 45.0312C22 43.9285 21.1027 43.0312 20 43.0312ZM50 45.0312C50 50.5453 45.5141 55.0312 40 55.0312C34.4859 55.0312 30 50.5453 30 45.0312C30 39.5172 34.4859 35.0312 40 35.0312C45.5141 35.0312 50 39.5172 50 45.0312ZM38.3914 42.6918V42.2301C38.3914 41.7305 38.7981 41.3239 39.2981 41.3239H40.702C41.202 41.3239 41.6086 41.7305 41.6086 42.2301C41.6086 42.893 42.1462 43.4301 42.8086 43.4301C43.4711 43.4301 44.0086 42.893 44.0086 42.2301C44.0086 40.5776 42.7859 39.2167 41.2001 38.9742V38.1219C41.2001 37.459 40.663 36.9219 40.0001 36.9219C39.3372 36.9219 38.8001 37.459 38.8001 38.1219V38.9742C37.214 39.2166 35.9915 40.5776 35.9915 42.2301V42.6918C35.9915 44.2117 37.0216 45.5308 38.4962 45.8992L40.922 46.5059C41.3263 46.6071 41.6087 46.9684 41.6087 47.3852V47.8468C41.6087 48.3468 41.2021 48.7535 40.7021 48.7535H39.2982C38.7982 48.7535 38.3915 48.3468 38.3915 47.8468C38.3915 47.184 37.8544 46.6468 37.1915 46.6468C36.5286 46.6468 35.9915 47.184 35.9915 47.8468C35.9915 49.4997 37.214 50.8607 38.8001 51.1032V52.0597C38.8001 52.7226 39.3372 53.2597 40.0001 53.2597C40.663 53.2597 41.2001 52.7226 41.2001 52.0597V51.1032C42.7859 50.8607 44.0086 49.4997 44.0086 47.8468V47.3852C44.0086 45.8652 42.979 44.5461 41.5039 44.1777L39.0782 43.5711C38.6738 43.4699 38.3914 43.1086 38.3914 42.6918ZM68.4 35.7106V54.352C66.0523 54.8302 64.1992 56.684 63.7203 59.0313H16.2793C15.8011 56.684 13.9473 54.8301 11.6 54.352V35.7106C13.9473 35.2324 15.8012 33.3786 16.2793 31.0313H63.7203C64.1992 33.3786 66.0523 35.2325 68.4 35.7106ZM24.4 45.0312C24.4 42.6051 22.4262 40.6312 20 40.6312C17.5738 40.6312 15.6 42.6051 15.6 45.0312C15.6 47.4574 17.5738 49.4312 20 49.4312C22.4262 49.4312 24.4 47.4574 24.4 45.0312ZM52.4 45.0312C52.4 38.1937 46.8375 32.6312 40 32.6312C33.1625 32.6312 27.6 38.1937 27.6 45.0312C27.6 51.8688 33.1625 57.4312 40 57.4312C46.8375 57.4312 52.4 51.8688 52.4 45.0312ZM64.4 45.0312C64.4 42.6051 62.4258 40.6312 60 40.6312C57.5742 40.6312 55.6 42.6051 55.6 45.0312C55.6 47.4574 57.5742 49.4312 60 49.4312C62.4258 49.4312 64.4 47.4574 64.4 45.0312Z" fill="white"/>
</g>
</svg>
