<svg xmlns="http://www.w3.org/2000/svg" width="28" height="28" viewBox="0 0 28" fill="none">
  <path d="M5.76235 25.2957C5.50236 25.2957 5.29102 25.0887 5.29102 24.8343C5.29102 24.5796 5.50236 24.3726 5.76235 24.3726C6.02208 24.3726 6.23343 24.5796 6.23343 24.8343C6.23343 25.0887 6.02208 25.2957 5.76235 25.2957ZM5.76235 24.4793C5.56244 24.4793 5.40001 24.6384 5.40001 24.8343C5.40001 25.0299 5.56244 25.189 5.76235 25.189C5.962 25.189 6.12443 25.0299 6.12443 24.8343C6.12443 24.6384 5.962 24.4793 5.76235 24.4793Z" fill="white"/>
  <path d="M22.3773 21.648C22.1176 21.648 21.9062 21.441 21.9062 21.1866C21.9062 20.9321 22.1176 20.7251 22.3773 20.7251C22.6373 20.7251 22.8487 20.9321 22.8487 21.1866C22.8487 21.441 22.6373 21.648 22.3773 21.648ZM22.3773 20.8319C22.1777 20.8319 22.0152 20.991 22.0152 21.1866C22.0152 21.3821 22.1777 21.5412 22.3773 21.5412C22.5772 21.5412 22.7397 21.3821 22.7397 21.1866C22.7397 20.991 22.5772 20.8319 22.3773 20.8319Z" fill="white"/>
  <path d="M6.36504 6.20512C6.335 6.20512 6.31055 6.18116 6.31055 6.15173V4.8184C6.31055 4.78897 6.335 4.76501 6.36504 4.76501C6.39508 4.76501 6.41954 4.78897 6.41954 4.8184V6.15173C6.41954 6.18116 6.39508 6.20512 6.36504 6.20512Z" fill="white"/>
  <path d="M5.87481 6.3802C5.84477 6.3802 5.82031 6.35624 5.82031 6.32681V3.48515C5.82031 3.45572 5.84477 3.43176 5.87481 3.43176C5.90485 3.43176 5.92931 3.45572 5.92931 3.48515V6.32681C5.92931 6.35624 5.90485 6.3802 5.87481 6.3802Z" fill="white"/>
  <path d="M5.35723 6.60513C5.32719 6.60513 5.30273 6.58118 5.30273 6.55175V4.25175C5.30273 4.22232 5.32719 4.19836 5.35723 4.19836C5.38727 4.19836 5.41173 4.22232 5.41173 4.25175V6.55175C5.41173 6.58118 5.38727 6.60513 5.35723 6.60513Z" fill="white"/>
  <path d="M4.81036 6.79414C4.78032 6.79414 4.75586 6.77018 4.75586 6.74076V5.48503C4.75586 5.4556 4.78032 5.43164 4.81036 5.43164C4.8404 5.43164 4.86485 5.4556 4.86485 5.48503V6.74076C4.86485 6.77018 4.8404 6.79414 4.81036 6.79414Z" fill="white"/>
  <path d="M23.276 7.05059C23.246 7.05059 23.2215 7.02663 23.2215 6.9972V6.19382C23.0397 6.1959 22.4727 6.20267 22.3602 6.19277C22.3302 6.19017 22.3081 6.16413 22.3108 6.13496C22.3137 6.10553 22.34 6.08132 22.3698 6.08652C22.4955 6.09746 23.2673 6.08679 23.2752 6.08626C23.2845 6.08418 23.3037 6.09147 23.3143 6.10163C23.3247 6.11178 23.3305 6.12533 23.3305 6.13965V6.9972C23.3305 7.02663 23.3061 7.05059 23.276 7.05059Z" fill="white"/>
  <path d="M23.3593 12.5017L15.3766 26.3316C15.2729 26.5121 15.135 26.6499 14.9971 26.7288C14.8592 26.8063 14.72 26.8237 14.6162 26.7622L13.8503 26.3262C13.8489 26.3262 13.8476 26.3249 13.8462 26.3236L5.81041 21.5531C5.48276 21.3592 5.71895 20.5902 6.18718 20.3254L9.07879 18.6898C9.30678 18.5614 9.48977 18.2511 9.48837 17.9943L9.45697 6.89272C9.45564 6.54232 9.71089 6.15047 9.98667 5.994C10.0823 5.9405 10.1792 5.9151 10.2706 5.92847L13.8844 6.47412C13.9718 6.48749 14.0701 6.46208 14.1698 6.40591C14.2681 6.34975 14.3677 6.26281 14.4538 6.15181L18.0553 1.52581C18.1454 1.40945 18.2437 1.32386 18.3379 1.27036C18.4812 1.19012 18.6191 1.17808 18.7188 1.23559L19.4888 1.67291C19.5816 1.72641 19.6403 1.83741 19.6417 2.00592L19.6717 12.6983L22.2056 11.266C22.3599 11.179 22.4883 11.175 22.581 11.2272L23.3387 11.6591C23.5394 11.7581 23.5818 12.1152 23.3593 12.5017Z" fill="#324566"/>
  <path d="M22.5824 11.2272C22.4899 11.1745 22.361 11.1792 22.2076 11.266L19.3172 12.9007C19.2033 12.9651 19.1 12.9711 19.0254 12.9286L19.7951 13.3669C19.8698 13.4094 19.9731 13.4033 20.087 13.3389L22.9775 11.7042C23.1308 11.6174 23.2596 11.6127 23.3522 11.6654L22.5824 11.2272Z" fill="#C1C1C1"/>
  <path d="M19.4887 1.6734L18.7189 1.23519C18.6193 1.17849 18.4816 1.18974 18.3385 1.27067C18.2432 1.32456 18.1455 1.40934 18.0551 1.5255L14.454 6.15181C14.3674 6.26317 14.2686 6.35028 14.1696 6.40622C14.0707 6.46218 13.9717 6.48698 13.8848 6.47373L10.2704 5.92834C10.1796 5.91463 10.0818 5.9404 9.98644 5.9943C9.71046 6.15041 9.45581 6.5425 9.45681 6.89262L9.48894 17.9945C9.48968 18.2506 9.30635 18.5616 9.07884 18.6903L6.18749 20.3255C5.71945 20.5903 5.48247 21.3592 5.81045 21.553L13.8462 26.324C13.8476 26.3248 13.8491 26.3257 13.8505 26.3265L14.6203 26.7647C14.6189 26.7639 14.6174 26.763 14.6159 26.7622L6.5802 21.9912C6.25222 21.7974 6.4892 21.0285 6.95731 20.7637L9.84859 19.1285C10.0761 18.9998 10.2594 18.6888 10.2587 18.4327L10.2266 7.33083C10.2256 6.98072 10.4802 6.58863 10.7563 6.43252C10.8515 6.37862 10.9493 6.35284 11.0401 6.36655L14.6545 6.91195C14.7415 6.92519 14.8405 6.9004 14.9395 6.84444C15.0384 6.78849 15.1372 6.70138 15.2238 6.59002L18.8249 1.96371C18.9153 1.84756 19.0129 1.76278 19.1083 1.70889C19.2514 1.62795 19.3891 1.6167 19.4887 1.6734Z" fill="#C1C1C1"/>
  <path d="M19.1041 1.70903C19.3802 1.55288 19.6362 1.65611 19.6372 2.00625L19.6694 13.1081C19.6701 13.3642 19.8546 13.4672 20.0812 13.3391L22.9717 11.7043C23.4398 11.4396 23.6796 11.9388 23.3547 12.502L15.3728 26.3319C15.269 26.512 15.131 26.6508 14.9928 26.7289C14.8546 26.807 14.7163 26.8246 14.6118 26.7623L6.57607 21.9914C6.2481 21.7975 6.48508 21.0286 6.95316 20.7639L9.84447 19.1287C10.072 19 10.2553 18.6889 10.2546 18.4329L10.2224 7.33097C10.2214 6.98086 10.4761 6.58877 10.7521 6.43265C10.8474 6.37876 10.9452 6.35298 11.036 6.36669L14.6504 6.91208C14.7373 6.92533 14.8363 6.90054 14.9353 6.84458C15.0342 6.78863 15.1331 6.70152 15.2196 6.59017L18.8208 1.96386C18.9112 1.8477 19.0088 1.76292 19.1041 1.70903Z" fill="white"/>
  <path d="M23.3549 12.5022L15.3723 26.3321C15.2686 26.5126 15.1307 26.6504 14.9928 26.7293C14.8549 26.8068 14.7156 26.8242 14.6119 26.7627L6.57603 21.9923C6.24838 21.7983 6.48457 21.0293 6.95287 20.7645L9.84448 19.1289C10.0711 19.0005 10.2554 18.6889 10.2541 18.4335L10.2322 10.7449C10.8438 11.0378 11.4076 11.4577 12.0357 11.7319C12.2255 11.8148 12.437 11.8843 12.6364 11.8308C12.8453 11.7733 12.9913 11.5954 13.1129 11.4203C13.446 10.9415 13.7054 10.4092 14.0972 9.97588C14.4904 9.54257 15.0679 9.20822 15.6522 9.3005C16.0153 9.35667 16.343 9.57199 16.7103 9.60542C17.539 9.68165 18.1424 8.83108 18.3581 8.04336C18.5724 7.25564 18.623 6.37163 19.1745 5.76045C19.3111 5.60932 19.4722 5.48495 19.6469 5.38464L19.6688 13.108C19.6701 13.3648 19.8544 13.4678 20.0811 13.3394L22.9713 11.7051C23.4396 11.4403 23.6798 11.9392 23.3549 12.5022Z" fill="white"/>
  <path d="M14.3209 13.048C16.4154 11.7822 18.1734 12.6974 18.2522 15.0946C18.3308 17.4873 16.7005 20.4546 14.606 21.7203C12.5153 22.9838 10.7552 22.0654 10.6766 19.6727C10.5978 17.2755 12.2302 14.3115 14.3209 13.048Z" fill="#162830"/>
  <path d="M11.2933 19.7997C11.3321 20.9915 11.7855 21.815 12.4907 22.1903L12.896 22.4066C12.4252 22.1548 13.5471 21.6461 14.3248 20.9799C13.6693 18.7756 12.6614 18.2363 11.298 19.3775C11.2913 19.5197 11.2888 19.6609 11.2933 19.7997Z" fill="#8FB0D8"/>
  <path d="M18.0771 13.0499L17.6687 12.8337C16.9697 12.4621 16.0218 12.5392 14.989 13.1436C14.6834 14.5559 15.67 14.75 17.28 14.3565C17.5205 13.554 17.7 12.8503 18.0771 13.0499Z" fill="#C6D7F4"/>
  <path d="M12.4108 15.8733C11.7655 16.9823 11.3494 18.2268 11.2949 19.3774L14.3217 20.9798C14.7035 20.6528 15.0027 20.288 14.9889 19.8966C14.9388 18.3582 14.6352 17.7802 14.9744 17.2306C15.0676 14.822 14.0547 14.6965 12.4108 15.8733C12.4108 15.8733 12.4108 15.8733 12.4108 15.8733Z" fill="#C6D7F4"/>
  <path d="M16.3049 16.1721C16.8026 15.8712 17.0664 15.0743 17.2815 14.3565L14.9905 13.1436C14.9896 13.1436 14.989 13.1436 14.9881 13.1436C13.978 13.7389 13.0748 14.7345 12.4121 15.8734L14.9757 17.2306C15.1654 16.9232 15.5554 16.6247 16.3049 16.1721Z" fill="#AAC4E8"/>
  <path d="M15.3482 13.3933C17.4427 12.1276 19.2007 13.0427 19.2795 15.4399C19.3582 17.8326 17.7278 20.7999 15.6333 22.0657C13.5426 23.3291 11.7826 22.4108 11.7039 20.018C11.6251 17.6208 13.2575 14.6568 15.3482 13.3933Z" fill="#DBE7FE"/>
  <path d="M13.8968 21.9967C12.5202 22.0362 12.3619 20.4765 12.3461 19.9976C12.2755 17.8465 13.8034 15.0698 15.6826 13.9341C16.1759 13.6361 16.6579 13.4721 17.0767 13.4601C18.4132 13.4217 18.6043 14.8461 18.6245 15.4602C18.6951 17.6113 17.1664 20.3885 15.286 21.5249C14.7952 21.8215 14.3148 21.9846 13.8968 21.9967ZM17.0814 13.6144C16.6903 13.6257 16.2351 13.7817 15.7654 14.0655C13.9283 15.1757 12.4346 17.89 12.5038 19.9926C12.5183 20.4354 12.6613 21.8777 13.8921 21.8423C14.2825 21.8311 14.7358 21.6759 15.2032 21.3935C17.0414 20.2826 18.536 17.5678 18.4668 15.4652C18.4482 14.8973 18.276 13.5801 17.0814 13.6144Z" fill="white"/>
  <path d="M15.3906 15.2695L16.7368 16.9489L15.4 18.5093L15.3906 15.2695Z" fill="#8FB0D8"/>
  <path d="M13.9297 18.8802L15.3937 18.9645L15.3971 20.1448L13.9297 18.8802Z" fill="#8FB0D8"/>
  <path d="M16.8513 17.2273L15.396 20.1449L15.3926 18.9646L16.8513 17.2273Z" fill="#8FB0D8"/>
  <path d="M15.3832 15.2695L15.3926 18.5093L14.0527 18.4628L15.3832 15.2695Z" fill="#8FB0D8"/>
  <path d="M15.5723 15.3119L16.9185 16.9913L15.5816 18.5516L15.5723 15.3119Z" fill="#324566"/>
  <path d="M14.1211 18.9229L15.5851 19.0071L15.5885 20.1874L14.1211 18.9229Z" fill="#324566"/>
  <path d="M17.0427 17.2699L15.5874 20.1875L15.584 19.0072L17.0427 17.2699Z" fill="white"/>
  <path d="M15.5746 15.3119L15.584 18.5516L14.2441 18.5052L15.5746 15.3119Z" fill="white"/>
  <path d="M8.07544 17.7337C8.0454 17.7337 8.02121 17.71 8.02094 17.6806L8.01562 15.952C8.01562 15.9225 8.03982 15.8986 8.06986 15.8983C8.0999 15.8983 8.12435 15.922 8.12462 15.9514L8.12994 17.6801C8.12994 17.7095 8.10548 17.7335 8.07544 17.7337Z" fill="white"/>
  <path d="M8.06672 15.2404C8.03668 15.2404 8.01248 15.2167 8.01222 15.1872L7.99414 9.26849C7.99414 9.23906 8.01833 9.2151 8.04837 9.21484C8.07841 9.21484 8.10287 9.23854 8.10314 9.26797L8.12121 15.1867C8.12121 15.2161 8.09676 15.2401 8.06672 15.2404Z" fill="white"/>
  <path d="M8.04508 8.66617C8.01504 8.66617 7.99085 8.64247 7.99058 8.61305L7.98633 7.20758C7.98633 7.17789 8.01052 7.15419 8.04056 7.15393C8.0706 7.15393 8.09506 7.17763 8.09532 7.20706L8.09958 8.61252C8.09958 8.64221 8.07512 8.66591 8.04508 8.66617Z" fill="white"/>
  <path d="M17.6755 25.184C17.6665 25.184 17.6572 25.1816 17.6487 25.177C17.6226 25.1626 17.6133 25.1301 17.6282 25.1043L19.0396 22.6587C19.0539 22.6332 19.0874 22.6241 19.1137 22.6387C19.1398 22.653 19.1491 22.6855 19.1342 22.7113L17.7228 25.1569C17.713 25.1741 17.6944 25.184 17.6755 25.184Z" fill="white"/>
  <path d="M19.445 22.1159C19.436 22.1159 19.4267 22.1135 19.4182 22.1088C19.3921 22.0945 19.3828 22.062 19.3977 22.0362L22.536 16.5995C22.5504 16.5737 22.5836 16.5648 22.6102 16.5794C22.6362 16.5937 22.6455 16.6263 22.6306 16.6521L19.4924 22.0888C19.4825 22.106 19.4639 22.1159 19.445 22.1159Z" fill="white"/>
  <path d="M22.9372 16.0647C22.9282 16.0647 22.9189 16.0624 22.9104 16.0577C22.8843 16.0434 22.875 16.0108 22.8899 15.9851L23.7164 14.5528C23.7308 14.5272 23.7643 14.5179 23.7906 14.5327C23.8166 14.547 23.8259 14.5796 23.8111 14.6054L22.9846 16.0377C22.9747 16.0548 22.9561 16.0647 22.9372 16.0647Z" fill="white"/>
</svg>