<svg width="296" height="58" viewBox="0 0 296 58" fill="none" xmlns="http://www.w3.org/2000/svg">
<g clip-path="url(#clip0_521_2327)">
<path d="M11.2932 38.297C17.1387 38.297 21.8774 33.5556 21.8774 27.7067C21.8774 21.8579 17.1387 17.1165 11.2932 17.1165C5.44769 17.1165 0.708984 21.8579 0.708984 27.7067C0.708984 33.5556 5.44769 38.297 11.2932 38.297Z" fill="url(#paint0_linear_521_2327)"/>
<path d="M97.0744 40.1443C102.92 40.1443 107.659 35.4029 107.659 29.5541C107.659 23.7053 102.92 18.9639 97.0744 18.9639C91.2289 18.9639 86.4902 23.7053 86.4902 29.5541C86.4902 35.4029 91.2289 40.1443 97.0744 40.1443Z" fill="url(#paint1_linear_521_2327)"/>
<path d="M9.63281 11.3908C8.15595 13.4596 9.46871 14.059 10.3097 14.1H19.1709C28.9182 5.87409 39.5599 9.97471 43.6622 13.0533C45.976 14.8758 48.4415 13.8127 49.3851 13.0533C51.8465 9.90082 50.4106 7.38873 49.3851 6.52673C31.515 -6.72338 15.4377 4.2486 9.63281 11.3908Z" fill="url(#paint2_linear_521_2327)"/>
<path d="M98.9755 45.9057C100.456 43.8392 99.1439 43.2378 98.303 43.1954L89.4418 43.1811C79.6814 51.3914 69.0464 47.2738 64.9488 44.1886C62.638 42.3624 60.1708 43.4215 59.2261 44.1795C56.7595 47.328 58.1913 49.8423 59.2156 50.7059C77.0644 63.9847 93.1592 53.0386 98.9755 45.9057Z" fill="url(#paint3_linear_521_2327)"/>
<path d="M9.63291 41.3143C6.97456 41.4621 7.70478 43.223 8.40219 44.085C15.9342 55.5126 28.0731 57.3433 33.2012 56.8302C29.7757 56.7276 25.1153 56.5839 33.8781 56.8302C42.6408 57.0765 50.9441 49.8727 54.0004 46.24L71.292 25.1827C72.7688 22.9169 71.9073 20.6264 71.292 19.7644C69.5197 17.006 66.1639 17.9994 64.7076 18.8408L50.8005 36.2655C48.1421 40.009 44.2367 43.3667 42.6162 44.5776C31.6382 52.1631 21.058 45.5627 17.1403 41.3143C15.7455 41.2527 12.2913 41.1665 9.63291 41.3143Z" fill="url(#paint4_linear_521_2327)"/>
<path d="M97.7727 15.5666C100.431 15.4158 99.6985 13.6557 99.0001 12.7946C91.4546 1.37581 79.3135 -0.440618 74.1862 0.0785095C77.6117 0.177092 82.2722 0.315264 73.5093 0.0793074C64.7462 -0.156649 56.4515 7.05695 53.3994 10.6932L36.1327 31.7709C34.6584 34.0384 35.5226 36.3279 36.139 37.1892C37.9145 39.9454 41.2691 38.9482 42.7244 38.105L56.6111 20.664C59.265 16.9174 63.1665 13.5551 64.7856 12.3423C75.7546 4.74376 86.3425 11.3317 90.2653 15.5755C91.6602 15.6354 95.1144 15.7176 97.7727 15.5666Z" fill="url(#paint5_linear_521_2327)"/>
</g>
<path d="M146.246 20.1856H131.228V28.226H144.255V32.5168H131.228V44.5H125.855V15.8948H146.246V20.1856ZM151.705 44.5V23.4133H156.962V44.5H151.705ZM154.334 19.8184C153.225 19.8184 152.394 19.58 151.84 19.1032C151.299 18.6265 151.028 17.9436 151.028 17.0545C151.028 16.1654 151.299 15.4825 151.84 15.0057C152.394 14.529 153.225 14.2906 154.334 14.2906C155.442 14.2906 156.266 14.529 156.807 15.0057C157.362 15.4825 157.639 16.1654 157.639 17.0545C157.639 17.9436 157.362 18.6265 156.807 19.1032C156.266 19.58 155.442 19.8184 154.334 19.8184ZM171.742 53.3908C170.505 53.3908 169.249 53.307 167.973 53.1395C166.71 52.9849 165.499 52.7465 164.339 52.4244V48.2883C166.826 48.9969 169.171 49.3513 171.375 49.3513C172.947 49.3513 174.216 49.158 175.182 48.7714C176.149 48.3978 176.857 47.7986 177.308 46.974C177.772 46.1622 178.004 45.0798 178.004 43.7269V42.2H177.753C177.018 42.9731 176.129 43.5723 175.086 43.9975C174.055 44.4227 172.902 44.6353 171.626 44.6353C169.989 44.6353 168.514 44.2681 167.2 43.5336C165.886 42.7863 164.835 41.6459 164.049 40.1126C163.276 38.5792 162.89 36.6722 162.89 34.3915C162.89 30.7193 163.914 27.9167 165.963 25.9839C168.024 24.0512 171.059 23.0848 175.066 23.0848C176.458 23.0848 177.882 23.1879 179.338 23.394C180.794 23.5873 182.102 23.8643 183.261 24.2251V42.7798C183.261 45.2538 182.842 47.2703 182.005 48.8294C181.167 50.4014 179.905 51.5547 178.217 52.2891C176.529 53.0236 174.37 53.3908 171.742 53.3908ZM173.443 40.3638C174.306 40.3638 175.137 40.2157 175.936 39.9193C176.735 39.6229 177.424 39.1784 178.004 38.5857V27.4915C176.922 27.2338 175.794 27.105 174.622 27.105C172.483 27.105 170.872 27.6655 169.79 28.7865C168.707 29.8946 168.166 31.6148 168.166 33.947C168.166 36.2535 168.624 37.9028 169.538 38.8949C170.466 39.8742 171.768 40.3638 173.443 40.3638Z" fill="#235BD4"/>
<path d="M190.591 44.5V15.8948H195.964V40.1319H210.402V44.5H190.591ZM215.233 44.5V23.4133H220.49V44.5H215.233ZM217.862 19.8184C216.754 19.8184 215.922 19.58 215.368 19.1032C214.827 18.6265 214.557 17.9436 214.557 17.0545C214.557 16.1654 214.827 15.4825 215.368 15.0057C215.922 14.529 216.754 14.2906 217.862 14.2906C218.97 14.2906 219.794 14.529 220.336 15.0057C220.89 15.4825 221.167 16.1654 221.167 17.0545C221.167 17.9436 220.89 18.6265 220.336 19.1032C219.794 19.58 218.97 19.8184 217.862 19.8184ZM227.5 23.4133H231.83L232.178 25.6167H232.448C233.324 24.8049 234.349 24.18 235.521 23.7419C236.694 23.3038 237.944 23.0848 239.271 23.0848C241.642 23.0848 243.504 23.7677 244.857 25.1335C246.222 26.4865 246.905 28.6125 246.905 31.5117V44.5H241.648V31.7823C241.648 30.2747 241.32 29.1988 240.662 28.5545C240.018 27.9103 239.065 27.5882 237.802 27.5882C236.861 27.5882 235.94 27.7685 235.038 28.1293C234.136 28.4901 233.376 29.0313 232.757 29.7529V44.5H227.5V23.4133ZM269.023 44.5L262.355 35.8218H258.992V44.5H253.735V13.2662H258.992V31.5504H262.316L268.462 23.4133H274.145L266.646 33.5798L274.821 44.5H269.023ZM284.685 44.8866C282.083 44.8866 279.744 44.5773 277.669 43.9588V40.1706C279.847 40.8148 282.173 41.137 284.647 41.137C286.283 41.137 287.462 40.9179 288.184 40.4798C288.905 40.0417 289.266 39.3975 289.266 38.547C289.266 37.877 289.079 37.368 288.706 37.0201C288.332 36.6593 287.675 36.3888 286.734 36.2084L283.159 35.6285C281.058 35.2677 279.538 34.5977 278.597 33.6184C277.669 32.6392 277.206 31.3184 277.206 29.6562C277.206 28.3291 277.566 27.1758 278.288 26.1966C279.01 25.2044 280.111 24.4377 281.593 23.8965C283.088 23.3554 284.956 23.0848 287.198 23.0848C288.242 23.0848 289.273 23.1492 290.291 23.2781C291.308 23.4069 292.236 23.5873 293.074 23.8192V27.6075C291.244 27.0921 289.311 26.8344 287.275 26.8344C285.407 26.8344 284.086 27.0727 283.313 27.5495C282.553 28.0134 282.173 28.6576 282.173 29.4823C282.173 30.0879 282.353 30.5775 282.714 30.9512C283.088 31.312 283.732 31.5761 284.647 31.7436L288.222 32.3428C290.297 32.7036 291.817 33.3478 292.784 34.2756C293.75 35.1904 294.233 36.5305 294.233 38.2958C294.233 39.6616 293.866 40.8406 293.132 41.8328C292.41 42.812 291.334 43.5658 289.904 44.0941C288.474 44.6224 286.734 44.8866 284.685 44.8866Z" fill="white"/>
<defs>
<linearGradient id="paint0_linear_521_2327" x1="27.295" y1="26.2932" x2="0.860799" y2="25.9392" gradientUnits="userSpaceOnUse">
<stop stop-color="#0644CD"/>
<stop offset="1" stop-color="#2158D5"/>
</linearGradient>
<linearGradient id="paint1_linear_521_2327" x1="107.778" y1="28.3556" x2="80.0823" y2="27.7119" gradientUnits="userSpaceOnUse">
<stop stop-color="#DC984D"/>
<stop offset="1" stop-color="#BF8243"/>
</linearGradient>
<linearGradient id="paint2_linear_521_2327" x1="67.8458" y1="7.08899" x2="11.8109" y2="9.98569" gradientUnits="userSpaceOnUse">
<stop stop-color="#0644CD"/>
<stop offset="1" stop-color="#2158D5"/>
</linearGradient>
<linearGradient id="paint3_linear_521_2327" x1="56.4554" y1="47.5919" x2="115.828" y2="46.8842" gradientUnits="userSpaceOnUse">
<stop stop-color="#DC984D"/>
<stop offset="1" stop-color="#BF8243"/>
</linearGradient>
<linearGradient id="paint4_linear_521_2327" x1="94.1514" y1="29.58" x2="7.62266" y2="42.5189" gradientUnits="userSpaceOnUse">
<stop stop-color="#0644CD"/>
<stop offset="1" stop-color="#2158D5"/>
</linearGradient>
<linearGradient id="paint5_linear_521_2327" x1="121.788" y1="2.15688e-06" x2="28.0742" y2="4.0232" gradientUnits="userSpaceOnUse">
<stop stop-color="#BF8243"/>
<stop offset="1" stop-color="#DC984D"/>
</linearGradient>
<clipPath id="clip0_521_2327">
<rect width="107.934" height="58" fill="white" transform="translate(0.21875)"/>
</clipPath>
</defs>
</svg>
