<svg width="32" height="32" viewBox="0 0 32 32" fill="none" xmlns="http://www.w3.org/2000/svg">
<g id="maximize 1">
<g id="Group">
<path id="Vector" d="M2.66797 24C2.66797 21.4859 2.66797 20.2288 3.44902 19.4478C4.23006 18.6667 5.48714 18.6667 8.0013 18.6667C10.5155 18.6667 11.7725 18.6667 12.5536 19.4478C13.3346 20.2288 13.3346 21.4859 13.3346 24C13.3346 26.5142 13.3346 27.7712 12.5536 28.5523C11.7725 29.3334 10.5155 29.3334 8.0013 29.3334C5.48714 29.3334 4.23006 29.3334 3.44902 28.5523C2.66797 27.7712 2.66797 26.5142 2.66797 24Z" fill="white"/>
<path id="Vector_2" fill-rule="evenodd" clip-rule="evenodd" d="M4.6206 4.61931C2.66797 6.57193 2.66797 9.71462 2.66797 16C2.66797 16.5275 2.66797 17.0328 2.66913 17.5171C3.34658 17.073 4.09306 16.8784 4.80877 16.7822C5.6696 16.6664 6.72781 16.6666 7.882 16.6667H8.12065C9.27482 16.6666 10.333 16.6664 11.1939 16.7822C12.1418 16.9096 13.1438 17.2095 13.9678 18.0335C14.7918 18.8576 15.0917 19.8595 15.2192 20.8075C15.3349 21.6683 15.3348 22.7266 15.3346 23.8807V24.1194C15.3348 25.2736 15.3349 26.3318 15.2192 27.1926C15.1229 27.9083 14.9285 28.6547 14.4842 29.3322C14.9686 29.3334 15.4738 29.3334 16.0013 29.3334C22.2866 29.3334 25.4294 29.3334 27.382 27.3807C29.3346 25.4282 29.3346 22.2854 29.3346 16C29.3346 9.71462 29.3346 6.57193 27.382 4.61931C25.4294 2.66669 22.2866 2.66669 16.0013 2.66669C9.7159 2.66669 6.57321 2.66669 4.6206 4.61931ZM17.668 8.33335C17.1157 8.33335 16.668 8.78107 16.668 9.33335C16.668 9.88563 17.1157 10.3334 17.668 10.3334H20.2537L15.2942 15.293C14.9037 15.6835 14.9037 16.3166 15.2942 16.7071C15.6848 17.0976 16.3178 17.0976 16.7084 16.7071L21.668 11.7476V14.3334C21.668 14.8856 22.1157 15.3334 22.668 15.3334C23.2202 15.3334 23.668 14.8856 23.668 14.3334V9.33335C23.668 8.78107 23.2202 8.33335 22.668 8.33335H17.668Z" fill="white"/>
</g>
</g>
</svg>
