<svg width="223" height="118" viewBox="0 0 223 118" fill="none" xmlns="http://www.w3.org/2000/svg">
<path d="M5.568 47H0.896L17.728 1.176H23.424L40.448 47H35.648L31.168 34.84H10.048L5.568 47ZM19.968 7.64L11.456 30.808H29.696L21.12 7.64C20.928 7 20.608 6.232 20.544 5.784C20.48 6.168 20.224 7 19.968 7.64ZM49.698 47H45.858V0.343998H50.274V22.04C52.45 17.496 56.674 15.192 61.922 15.192C70.946 15.192 76.194 22.232 76.194 31.576C76.194 40.856 70.818 47.768 61.794 47.768C56.61 47.768 52.322 45.464 50.146 40.664L49.698 47ZM50.338 31.448C50.338 38.616 54.306 43.736 61.09 43.736C67.81 43.736 71.714 38.616 71.714 31.448C71.714 24.344 67.81 19.16 61.09 19.16C54.306 19.16 50.338 24.344 50.338 31.448ZM81.057 31.512C81.057 22.04 87.713 15.192 96.801 15.192C105.889 15.192 112.545 22.04 112.545 31.512C112.545 40.92 105.889 47.768 96.801 47.768C87.713 47.768 81.057 40.92 81.057 31.512ZM85.537 31.448C85.537 38.744 90.145 43.8 96.801 43.8C103.393 43.8 108.065 38.744 108.065 31.448C108.065 24.28 103.393 19.16 96.801 19.16C90.145 19.16 85.537 24.28 85.537 31.448ZM140.618 16.024H145.034V47H141.194L140.618 41.752C138.89 45.336 134.602 47.768 129.738 47.768C122.442 47.768 118.474 42.776 118.474 35.224V15.96H122.954V33.816C122.954 41.176 126.218 43.8 131.146 43.8C137.098 43.8 140.618 39.832 140.618 32.472V16.024ZM161.337 47H156.985V19.736H150.777V16.024H156.985V6.232H161.337V16.024H167.545V19.736H161.337V47Z" fill="white" fill-opacity="0.7"/>
<path d="M5.568 117H0.896L17.728 71.176H23.424L40.448 117H35.648L31.168 104.84H10.048L5.568 117ZM19.968 77.64L11.456 100.808H29.696L21.12 77.64C20.928 77 20.608 76.232 20.544 75.784C20.48 76.168 20.224 77 19.968 77.64ZM42.6195 101.576C42.6195 91.848 48.5715 85.192 57.5955 85.192C64.7635 85.192 70.0115 89.352 71.2275 95.752H66.8115C65.6595 91.464 61.9475 89.096 57.6595 89.096C51.3875 89.096 46.9715 93.896 46.9715 101.512C46.9715 108.872 51.0675 113.8 57.3395 113.8C61.9475 113.8 65.6595 111.24 66.8755 107.272H71.3555C69.8835 113.608 64.3795 117.768 57.3395 117.768C48.5715 117.768 42.6195 111.304 42.6195 101.576ZM85.1495 117H80.7975V89.736H74.5895V86.024H80.7975V76.232H85.1495V86.024H91.3575V89.736H85.1495V117ZM105.504 117.768C98.912 117.768 95.008 114.056 95.008 108.616C95.008 102.92 99.36 99.336 106.592 98.76L116.832 97.928V96.904C116.832 90.824 113.184 88.904 108.64 88.904C103.264 88.904 100.064 91.336 100.064 95.496H96.032C96.032 89.224 101.152 85.192 108.768 85.192C115.936 85.192 121.184 88.776 121.184 96.968V117H117.472L116.896 111.56C114.976 115.464 110.752 117.768 105.504 117.768ZM106.528 114.184C113.056 114.184 116.832 109.64 116.832 102.92V101.256L107.68 101.96C101.856 102.472 99.488 105.032 99.488 108.488C99.488 112.264 102.304 114.184 106.528 114.184ZM134.462 117H130.046V86.024H133.885L134.526 91.4C136.574 87.432 140.67 85.192 145.15 85.192C153.662 85.192 157.182 90.248 157.182 98.056V117H152.766V99.016C152.766 91.784 149.502 89.224 144.382 89.224C138.046 89.224 134.462 93.832 134.462 100.808V117ZM163.807 101.512C163.807 92.04 170.463 85.192 179.551 85.192C188.639 85.192 195.295 92.04 195.295 101.512C195.295 110.92 188.639 117.768 179.551 117.768C170.463 117.768 163.807 110.92 163.807 101.512ZM168.287 101.448C168.287 108.744 172.895 113.8 179.551 113.8C186.143 113.8 190.815 108.744 190.815 101.448C190.815 94.28 186.143 89.16 179.551 89.16C172.895 89.16 168.287 94.28 168.287 101.448ZM199.734 108.296H203.958C203.958 111.88 206.646 114.12 210.998 114.12C215.798 114.12 218.614 112.072 218.614 108.744C218.614 106.184 217.334 104.712 213.686 103.816L208.374 102.472C202.998 101.128 200.374 98.312 200.374 94.088C200.374 88.648 204.918 85.192 211.574 85.192C218.102 85.192 222.326 88.776 222.518 94.536H218.23C218.102 90.952 215.606 88.84 211.446 88.84C207.094 88.84 204.662 90.696 204.662 94.024C204.662 96.392 206.326 98.056 209.718 98.888L215.03 100.232C220.406 101.576 222.838 104.072 222.838 108.552C222.838 114.12 218.102 117.768 211.062 117.768C204.086 117.768 199.734 114.056 199.734 108.296Z" fill="url(#paint0_linear_232_63)" fill-opacity="0.8"/>
<defs>
<linearGradient id="paint0_linear_232_63" x1="233.5" y1="108.5" x2="5.5" y2="76" gradientUnits="userSpaceOnUse">
<stop stop-color="#FF0000"/>
<stop offset="0.37" stop-color="#B45AAB"/>
<stop offset="0.615" stop-color="#00D5A7"/>
<stop offset="0.933085" stop-color="#0674B7"/>
</linearGradient>
</defs>
</svg>
