<svg width="377" height="70" viewBox="0 0 377 70" fill="none" xmlns="http://www.w3.org/2000/svg">
<g clip-path="url(#clip0_165_2)">
<path fill-rule="evenodd" clip-rule="evenodd" d="M52.6867 35.4819C62.4848 35.4819 70.4277 27.539 70.4277 17.741C70.4277 7.9429 62.4848 0 52.6867 0C42.8886 0 34.9457 7.9429 34.9457 17.741C34.9457 19.4834 35.1969 21.1672 35.6651 22.758L48.2132 18.1951L54.4691 15.9202L53.1268 22.4402L50.47 35.3448C51.1962 35.4353 51.936 35.4819 52.6867 35.4819ZM46.8471 34.4984L48.6034 25.9678L49.4841 21.6902L45.3798 23.1827L37.0874 26.1981C39.1793 30.0484 42.6551 33.0377 46.8471 34.4984Z" fill="#FF0000"/>
<path d="M49.4841 21.6902L0.903809 39.3558L26.6691 48.8926L39.1792 71.7427L49.4841 21.6902Z" fill="#0674B7"/>
<path d="M126.344 54.795C124.283 50.1719 122.221 45.4863 120.159 40.8632H96.3564C94.2947 45.4863 92.233 50.1719 90.1714 54.795H86.7353C93.2326 40.2384 99.6675 25.6194 106.165 11.0628H110.351C116.786 25.6194 123.283 40.2384 129.78 54.795H126.344ZM97.7308 37.7394H118.785L108.227 14.0616L97.7308 37.7394ZM166.779 18.997C162.905 15.311 158.22 13.6242 152.847 13.6242C142.226 13.6242 133.542 22.3082 133.542 32.9289C133.542 43.5496 142.226 52.2335 152.847 52.2335C158.22 52.2335 162.905 50.5467 166.779 46.8607L169.153 48.9224C164.717 53.2956 159.157 55.3573 152.847 55.3573C140.477 55.3573 130.419 45.2364 130.419 32.9289C130.419 20.6214 140.477 10.5005 152.847 10.5005C159.157 10.5005 164.717 12.5622 169.153 16.9979L166.779 18.997ZM192.67 54.795H189.546V14.1865H173.553V11.0628H208.726V14.1865H192.67V54.795ZM243.972 54.795C241.91 50.1719 239.849 45.4863 237.787 40.8632H213.984C211.923 45.4863 209.861 50.1719 207.799 54.795H204.363C210.861 40.2384 217.295 25.6194 223.793 11.0628H227.979C234.413 25.6194 240.911 40.2384 247.408 54.795H243.972ZM215.359 37.7394H236.413L225.854 14.0616L215.359 37.7394ZM283.193 54.795L254.892 15.8108V54.795H251.768V11.0628H255.329L283.818 50.2968V11.0628H286.941V54.795H283.193ZM291.303 32.4291C291.303 20.3715 301.174 10.5005 313.232 10.5005C325.352 10.5005 335.223 20.3715 335.223 32.4291V33.3662C335.223 45.4863 325.352 55.3573 313.232 55.3573C301.174 55.3573 291.303 45.4863 291.303 33.3662V32.4291ZM294.427 33.3662C294.427 43.737 302.923 52.2335 313.232 52.2335C323.602 52.2335 332.099 43.737 332.099 33.3662V32.4291C332.099 22.1208 323.602 13.6242 313.232 13.6242C302.923 13.6242 294.427 22.1208 294.427 32.4291V33.3662ZM372.422 17.6226L369.923 19.3719C366.612 14.6238 360.864 13.4993 355.367 13.5618C350.119 13.6867 343.809 15.9358 343.871 22.1833C343.996 28.3058 351.243 29.9301 355.991 30.6798C363.363 31.9293 373.484 35.053 373.047 44.2993C372.61 53.4205 363.176 55.6072 355.617 55.3573C347.432 55.0449 343.059 52.7333 339.623 45.1739L342.434 43.8619C345.371 50.3593 348.744 52.0461 355.742 52.2335C361.364 52.4834 369.673 51.2964 369.986 44.1743C370.298 36.9273 361.052 34.6782 355.492 33.741C348.994 32.679 340.935 30.2425 340.81 22.3707C340.81 14.124 348.057 10.6879 355.304 10.5005C361.927 10.3756 368.486 11.9374 372.422 17.6226Z" fill="white"/>
</g>
<defs>
<clipPath id="clip0_165_2">
<rect width="376.549" height="69.59" fill="white"/>
</clipPath>
</defs>
</svg>
