<svg width="907" height="244" viewBox="0 0 907 244" fill="none" xmlns="http://www.w3.org/2000/svg">
<path d="M5.472 21L0.36 3.816H2.16L5.64 15.624C5.88 16.464 6.096 17.328 6.312 18.456C6.6 17.208 6.84 16.464 7.104 15.624L10.848 3.816H12.648L16.392 15.624C16.656 16.488 16.896 17.352 17.16 18.456C17.424 17.136 17.64 16.296 17.832 15.648L21.384 3.816H23.136L17.976 21H16.344L11.736 6.408L7.128 21H5.472ZM37.7884 21H27.4924V3.816H37.7644V5.4H29.2204V11.592H36.9724V13.152H29.2204V19.416H37.7884V21ZM251.008 8.28C251.008 5.4 253.312 3.504 256.768 3.504C259.864 3.504 261.905 5.232 262.168 8.112H260.416C260.225 6.168 258.905 5.064 256.744 5.064C254.32 5.064 252.736 6.312 252.736 8.256C252.736 9.768 253.624 10.728 255.424 11.184L258.376 11.904C261.065 12.552 262.457 14.088 262.457 16.416C262.457 19.392 260.152 21.288 256.6 21.288C253.264 21.288 251.008 19.536 250.792 16.728H252.568C252.664 18.528 254.248 19.704 256.6 19.704C259.121 19.704 260.729 18.48 260.729 16.512C260.729 14.976 259.864 13.968 258.016 13.536L255.112 12.816C252.424 12.168 251.008 10.632 251.008 8.28ZM282.796 12.408C282.796 17.616 279.412 21.288 274.612 21.288C269.788 21.288 266.428 17.616 266.428 12.408C266.428 7.2 269.812 3.504 274.612 3.504C279.436 3.504 282.796 7.176 282.796 12.408ZM281.02 12.408C281.02 8.112 278.404 5.184 274.612 5.184C270.82 5.184 268.228 8.112 268.228 12.408C268.228 16.704 270.82 19.632 274.612 19.632C278.404 19.632 281.02 16.68 281.02 12.408ZM296.609 13.44H289.577V21H287.849V3.816H297.977V5.4H289.577V11.88H296.609V13.44ZM301 5.4V3.816H313.312V5.4H308.008V21H306.28V5.4H301ZM321.23 21L316.118 3.816H317.918L321.398 15.624C321.638 16.464 321.854 17.328 322.07 18.456C322.358 17.208 322.598 16.464 322.862 15.624L326.606 3.816H328.406L332.15 15.624C332.414 16.488 332.654 17.352 332.918 18.456C333.182 17.136 333.398 16.296 333.59 15.648L337.142 3.816H338.894L333.734 21H332.102L327.494 6.408L322.886 21H321.23ZM341.586 21H339.834L346.146 3.816H348.282L354.666 21H352.866L351.186 16.44H343.266L341.586 21ZM346.986 6.24L343.794 14.928H350.634L347.418 6.24C347.346 6 347.226 5.712 347.202 5.544C347.178 5.688 347.082 6 346.986 6.24ZM360.703 21H358.975V3.816H365.383C368.863 3.816 370.975 5.736 370.975 8.784C370.975 11.256 369.679 12.984 367.471 13.584L371.143 21H369.223L365.719 13.872H360.703V21ZM360.703 5.376V12.312H365.431C367.807 12.312 369.199 11.016 369.199 8.832C369.199 6.6 367.735 5.376 365.383 5.376H360.703ZM386.542 21H376.246V3.816H386.518V5.4H377.974V11.592H385.726V13.152H377.974V19.416H386.542V21ZM409.307 13.44H402.275V21H400.547V3.816H410.675V5.4H402.275V11.88H409.307V13.44ZM430.81 12.408C430.81 17.616 427.426 21.288 422.626 21.288C417.802 21.288 414.442 17.616 414.442 12.408C414.442 7.2 417.826 3.504 422.626 3.504C427.45 3.504 430.81 7.176 430.81 12.408ZM429.034 12.408C429.034 8.112 426.418 5.184 422.626 5.184C418.834 5.184 416.242 8.112 416.242 12.408C416.242 16.704 418.834 19.632 422.626 19.632C426.418 19.632 429.034 16.68 429.034 12.408ZM437.592 21H435.864V3.816H442.272C445.752 3.816 447.864 5.736 447.864 8.784C447.864 11.256 446.568 12.984 444.36 13.584L448.032 21H446.112L442.608 13.872H437.592V21ZM437.592 5.376V12.312H442.32C444.696 12.312 446.088 11.016 446.088 8.832C446.088 6.6 444.624 5.376 442.272 5.376H437.592Z" fill="white"/>
<path d="M51.7933 21V3.816H58.0813C61.3933 3.816 63.4333 5.496 63.4333 8.256C63.4333 10.272 62.5453 11.64 60.7693 12.336C62.7613 12.984 63.7693 14.376 63.7693 16.488C63.7693 19.248 61.7053 21 58.4413 21H51.7933ZM58.0573 5.352H53.5213V11.64H58.2733C60.4333 11.64 61.6573 10.44 61.6573 8.4C61.6573 6.48 60.3613 5.352 58.0573 5.352ZM58.4413 13.152H53.5213V19.44H58.4413C60.6973 19.44 62.0173 18.264 62.0173 16.272C62.0173 14.328 60.6733 13.152 58.4413 13.152ZM68.6871 15.024V3.816H70.4151V14.952C70.4151 17.976 72.0711 19.608 75.0711 19.608C77.9991 19.608 79.6551 17.928 79.6551 14.952V3.816H81.3831V15.024C81.3831 18.912 78.9831 21.288 75.0711 21.288C71.0871 21.288 68.6871 18.936 68.6871 15.024ZM89.0957 3.816V21H87.3677V3.816H89.0957ZM96.9219 3.816V19.416H104.818V21H95.1939V3.816H96.9219ZM114.557 21H109.325V3.816H114.509C119.693 3.816 123.149 7.272 123.149 12.408C123.149 17.544 119.717 21 114.557 21ZM114.437 5.4H111.053V19.416H114.485C118.685 19.416 121.373 16.68 121.373 12.408C121.373 8.112 118.685 5.4 114.437 5.4ZM148.04 21L146.504 19.224C145.16 20.568 143.288 21.312 141.032 21.312C137.408 21.312 135.056 19.464 135.056 16.632C135.056 14.448 136.352 12.84 139.448 11.16C137.888 9.336 137.264 8.304 137.264 7.032C137.264 4.968 138.824 3.528 141.152 3.528C143.36 3.528 144.872 4.872 144.872 6.888C144.872 8.592 143.984 9.912 141.704 11.448L146.384 16.848C146.864 15.84 147.128 14.592 147.128 13.152H148.736C148.736 15.072 148.28 16.728 147.44 18.048L150.008 21H148.04ZM140.816 10.416L140.84 10.44C142.52 9.384 143.288 8.28 143.288 6.936C143.288 5.688 142.472 4.92 141.128 4.92C139.736 4.92 138.872 5.736 138.872 7.032C138.872 7.896 139.256 8.616 140.816 10.416ZM136.76 16.536C136.76 18.624 138.392 19.872 141.128 19.872C143.024 19.872 144.512 19.272 145.544 18.12L140.312 12.144C137.72 13.584 136.76 14.784 136.76 16.536ZM160.903 8.28C160.903 5.4 163.207 3.504 166.663 3.504C169.759 3.504 171.799 5.232 172.063 8.112H170.311C170.119 6.168 168.799 5.064 166.639 5.064C164.215 5.064 162.631 6.312 162.631 8.256C162.631 9.768 163.519 10.728 165.319 11.184L168.271 11.904C170.959 12.552 172.351 14.088 172.351 16.416C172.351 19.392 170.047 21.288 166.495 21.288C163.159 21.288 160.903 19.536 160.687 16.728H162.463C162.559 18.528 164.143 19.704 166.495 19.704C169.015 19.704 170.623 18.48 170.623 16.512C170.623 14.976 169.759 13.968 167.911 13.536L165.007 12.816C162.319 12.168 160.903 10.632 160.903 8.28ZM184.386 21.264C179.586 21.264 176.322 17.688 176.322 12.408C176.322 7.128 179.634 3.528 184.482 3.528C188.178 3.528 191.082 5.76 191.778 9.168H189.93C189.21 6.696 187.098 5.184 184.41 5.184C180.642 5.184 178.122 8.064 178.122 12.408C178.122 16.728 180.642 19.608 184.41 19.608C187.122 19.608 189.282 18.144 190.026 15.84H191.874C191.082 19.08 188.082 21.264 184.386 21.264ZM196.22 21H194.468L200.78 3.816H202.916L209.3 21H207.5L205.82 16.44H197.9L196.22 21ZM201.62 6.24L198.428 14.928H205.268L202.052 6.24C201.98 6 201.86 5.712 201.836 5.544C201.812 5.688 201.716 6 201.62 6.24ZM215.337 3.816V19.416H223.233V21H213.609V3.816H215.337ZM238.036 21H227.74V3.816H238.012V5.4H229.468V11.592H237.22V13.152H229.468V19.416H238.036V21Z" fill="#FF0000"/>
<path d="M4.56156 72.8181C4.56156 60.3775 14.514 52.1874 29.4428 52.1874C42.8164 52.1874 51.6285 59.6518 52.7689 72.0924H45.2009C44.3715 63.695 38.6696 58.9261 29.3391 58.9261C18.8683 58.9261 12.0259 64.317 12.0259 72.7144C12.0259 79.2458 15.8618 83.3926 23.6372 85.3624L36.3888 88.4726C48 91.2717 54.013 97.9067 54.013 107.963C54.013 120.818 44.0605 129.008 28.7171 129.008C14.3067 129.008 4.56156 121.44 3.62851 109.311H11.3002C11.7149 117.086 18.5572 122.166 28.7171 122.166C39.6026 122.166 46.5486 116.879 46.5486 108.378C46.5486 101.743 42.8164 97.3883 34.8337 95.5222L22.2894 92.4121C10.6782 89.6129 4.56156 82.978 4.56156 72.8181ZM77.3885 127.764H70.3389V83.6H60.2827V77.587H70.3389V61.7252H77.3885V77.587H87.4447V83.6H77.3885V127.764ZM110.36 129.008C99.682 129.008 93.358 122.995 93.358 114.183C93.358 104.956 100.408 99.1507 112.123 98.2177L128.71 96.87V95.2112C128.71 85.3624 122.801 82.2523 115.44 82.2523C106.732 82.2523 101.548 86.1918 101.548 92.9304H95.0168C95.0168 82.7706 103.311 76.2393 115.647 76.2393C127.259 76.2393 135.76 82.0449 135.76 95.3149V127.764H129.747L128.814 118.952C125.704 125.276 118.861 129.008 110.36 129.008ZM112.019 123.203C122.593 123.203 128.71 115.842 128.71 104.956V102.261L113.885 103.401C104.451 104.231 100.615 108.378 100.615 113.976C100.615 120.092 105.177 123.203 112.019 123.203ZM176.343 76.965V83.3926H172.404C163.177 83.3926 157.268 89.6129 157.268 99.1507V127.764H150.114V77.587H156.853L157.371 85.3624C159.341 79.9715 164.628 76.4466 171.678 76.4466C173.233 76.4466 174.581 76.5503 176.343 76.965ZM199.385 127.764H192.335V83.6H182.279V77.587H192.335V61.7252H199.385V77.587H209.441V83.6H199.385V127.764ZM254.005 77.587H261.158V127.764H254.938L254.005 119.263C251.206 125.069 244.26 129.008 236.381 129.008C224.562 129.008 218.134 120.922 218.134 108.689V77.4834H225.391V106.408C225.391 118.33 230.679 122.581 238.661 122.581C248.303 122.581 254.005 116.153 254.005 104.231V77.587ZM276.059 149.639V77.587H282.28L283.005 87.7469C286.53 79.9715 293.58 76.2393 301.977 76.2393C316.491 76.2393 325.2 87.3322 325.2 102.468C325.2 117.604 316.802 129.008 301.977 129.008C293.476 129.008 286.737 125.38 283.213 118.123V149.639H276.059ZM283.316 102.676C283.316 114.183 289.744 122.581 300.733 122.581C311.619 122.581 317.943 114.183 317.943 102.676C317.943 91.0644 311.619 82.7706 300.733 82.7706C289.744 82.7706 283.316 91.0644 283.316 102.676ZM332.351 113.665H339.194C339.194 119.47 343.548 123.099 350.598 123.099C358.373 123.099 362.935 119.781 362.935 114.391C362.935 110.244 360.861 107.859 354.952 106.408L346.347 104.231C337.639 102.054 333.388 97.492 333.388 90.6497C333.388 81.8376 340.749 76.2393 351.531 76.2393C362.105 76.2393 368.948 82.0449 369.259 91.3754H362.313C362.105 85.5697 358.062 82.1486 351.323 82.1486C344.274 82.1486 340.334 85.1551 340.334 90.546C340.334 94.3818 343.03 97.0773 348.524 98.425L357.129 100.602C365.837 102.779 369.777 106.822 369.777 114.079C369.777 123.099 362.105 129.008 350.701 129.008C339.401 129.008 332.351 122.995 332.351 113.665ZM460.559 127.764L453.924 120.092C448.118 125.898 440.032 129.112 430.286 129.112C414.632 129.112 404.472 121.129 404.472 108.896C404.472 99.4618 410.07 92.5158 423.444 85.2587C416.705 77.3797 414.01 72.9218 414.01 67.4272C414.01 58.5114 420.749 52.2911 430.805 52.2911C440.343 52.2911 446.874 58.0967 446.874 66.8052C446.874 74.1659 443.038 79.8678 433.189 86.5028L453.405 109.829C455.479 105.475 456.619 100.084 456.619 93.8635H463.565C463.565 102.157 461.595 109.311 457.967 115.013L469.06 127.764H460.559ZM429.353 82.0449L429.457 82.1486C436.714 77.587 440.032 72.8181 440.032 67.0125C440.032 61.6216 436.507 58.3041 430.701 58.3041C424.688 58.3041 420.956 61.8289 420.956 67.4272C420.956 71.1594 422.615 74.2695 429.353 82.0449ZM411.833 108.481C411.833 117.501 418.883 122.892 430.701 122.892C438.891 122.892 445.319 120.3 449.777 115.324L427.176 89.5093C415.98 95.7296 411.833 100.913 411.833 108.481ZM16.4838 157.535V231.764H9.01944V157.535H16.4838ZM40.1307 231.764H32.9773V181.587H39.1976L40.2344 190.295C43.5519 183.868 50.1869 180.239 57.4439 180.239C71.2322 180.239 76.9342 188.429 76.9342 201.077V231.764H69.7808V202.632C69.7808 190.917 64.4936 186.771 56.1998 186.771C45.9363 186.771 40.1307 194.235 40.1307 205.535V231.764ZM98.3448 231.764H91.1915V181.587H97.4118L98.4485 190.295C101.766 183.868 108.401 180.239 115.658 180.239C129.446 180.239 135.148 188.429 135.148 201.077V231.764H127.995V202.632C127.995 190.917 122.708 186.771 114.414 186.771C104.15 186.771 98.3448 194.235 98.3448 205.535V231.764ZM145.881 206.676C145.881 191.332 156.663 180.239 171.384 180.239C186.105 180.239 196.887 191.332 196.887 206.676C196.887 221.915 186.105 233.008 171.384 233.008C156.663 233.008 145.881 221.915 145.881 206.676ZM153.138 206.572C153.138 218.391 160.602 226.581 171.384 226.581C182.062 226.581 189.63 218.391 189.63 206.572C189.63 194.961 182.062 186.667 171.384 186.667C160.602 186.667 153.138 194.961 153.138 206.572ZM220.097 231.764L199.57 181.587H207.241L220.2 213.933C221.548 217.561 222.896 220.982 223.829 224.3C224.762 220.879 226.11 217.561 227.561 213.933L240.727 181.587H248.088L227.25 231.764H220.097ZM268.703 233.008C258.024 233.008 251.7 226.995 251.7 218.183C251.7 208.956 258.75 203.151 270.465 202.218L287.053 200.87V199.211C287.053 189.362 281.143 186.252 273.783 186.252C265.074 186.252 259.891 190.192 259.891 196.93H253.359C253.359 186.771 261.653 180.239 273.99 180.239C285.601 180.239 294.102 186.045 294.102 199.315V231.764H288.089L287.156 222.952C284.046 229.276 277.204 233.008 268.703 233.008ZM270.361 227.203C280.936 227.203 287.053 219.842 287.053 208.956V206.261L272.227 207.401C262.793 208.231 258.957 212.378 258.957 217.976C258.957 224.092 263.519 227.203 270.361 227.203ZM319.053 231.764H312.003V187.6H301.947V181.587H312.003V165.725H319.053V181.587H329.109V187.6H319.053V231.764ZM341.949 167.799C339.046 167.799 336.662 165.414 336.662 162.511C336.662 159.609 339.046 157.12 341.949 157.12C344.852 157.12 347.34 159.609 347.34 162.511C347.34 165.414 344.852 167.799 341.949 167.799ZM338.424 231.764V181.587H345.578V231.764H338.424ZM374.491 231.764L353.964 181.587H361.635L374.594 213.933C375.942 217.561 377.29 220.982 378.223 224.3C379.156 220.879 380.504 217.561 381.955 213.933L395.121 181.587H402.482L381.644 231.764H374.491ZM429.732 233.008C415.01 233.008 405.161 222.434 405.161 206.676C405.161 191.021 414.907 180.239 429.213 180.239C442.794 180.239 452.021 189.881 452.021 204.084V207.609H412.107C412.626 219.842 419.053 226.892 429.835 226.892C438.025 226.892 443.313 223.367 445.179 216.732H452.021C449.326 227.306 441.55 233.008 429.732 233.008ZM429.213 186.356C419.779 186.356 413.559 192.576 412.315 202.425H444.868C444.868 192.784 438.647 186.356 429.213 186.356ZM493.766 231.764V157.535H520.928C535.235 157.535 544.047 164.792 544.047 176.714C544.047 185.423 540.211 191.332 532.539 194.339C541.144 197.138 545.498 203.151 545.498 212.274C545.498 224.196 536.582 231.764 522.483 231.764H493.766ZM520.824 164.17H501.23V191.332H521.757C531.088 191.332 536.375 186.149 536.375 177.336C536.375 169.043 530.777 164.17 520.824 164.17ZM522.483 197.863H501.23V225.025H522.483C532.228 225.025 537.93 219.946 537.93 211.341C537.93 202.943 532.125 197.863 522.483 197.863ZM583.64 180.965V187.393H579.7C570.473 187.393 564.564 193.613 564.564 203.151V231.764H557.411V181.587H564.149L564.668 189.362C566.638 183.971 571.925 180.447 578.974 180.447C580.53 180.447 581.877 180.55 583.64 180.965ZM605.535 233.008C594.856 233.008 588.532 226.995 588.532 218.183C588.532 208.956 595.582 203.151 607.297 202.218L623.885 200.87V199.211C623.885 189.362 617.975 186.252 610.615 186.252C601.906 186.252 596.723 190.192 596.723 196.93H590.191C590.191 186.771 598.485 180.239 610.822 180.239C622.433 180.239 630.934 186.045 630.934 199.315V231.764H624.921L623.988 222.952C620.878 229.276 614.036 233.008 605.535 233.008ZM607.193 227.203C617.768 227.203 623.885 219.842 623.885 208.956V206.261L609.059 207.401C599.625 208.231 595.79 212.378 595.79 217.976C595.79 224.092 600.351 227.203 607.193 227.203ZM652.442 231.764H645.289V181.587H651.509L652.546 190.295C655.863 183.868 662.498 180.239 669.755 180.239C683.544 180.239 689.246 188.429 689.246 201.077V231.764H682.092V202.632C682.092 190.917 676.805 186.771 668.511 186.771C658.248 186.771 652.442 194.235 652.442 205.535V231.764ZM723.2 233.008C708.583 233.008 699.978 221.812 699.978 206.779C699.978 191.643 708.583 180.239 723.511 180.239C731.805 180.239 738.44 183.868 741.965 191.125V156.187H749.118V231.764H742.898L742.172 221.501C738.648 229.276 731.598 233.008 723.2 233.008ZM724.445 226.477C735.434 226.477 741.861 218.183 741.861 206.572C741.861 195.064 735.434 186.667 724.445 186.667C713.559 186.667 707.235 195.064 707.235 206.572C707.235 218.183 713.559 226.477 724.445 226.477ZM759.795 217.665H766.637C766.637 223.47 770.992 227.099 778.041 227.099C785.817 227.099 790.378 223.781 790.378 218.391C790.378 214.244 788.305 211.859 782.395 210.408L773.791 208.231C765.082 206.054 760.832 201.492 760.832 194.65C760.832 185.838 768.192 180.239 778.974 180.239C789.549 180.239 796.391 186.045 796.702 195.375H789.756C789.549 189.57 785.506 186.149 778.767 186.149C771.717 186.149 767.778 189.155 767.778 194.546C767.778 198.382 770.473 201.077 775.968 202.425L784.573 204.602C793.281 206.779 797.221 210.822 797.221 218.079C797.221 227.099 789.549 233.008 778.145 233.008C766.845 233.008 759.795 226.995 759.795 217.665Z" fill="url(#paint0_linear_178_357)"/>
<defs>
<linearGradient id="paint0_linear_178_357" x1="9.5" y1="92.5" x2="872.5" y2="221" gradientUnits="userSpaceOnUse">
<stop stop-color="white"/>
<stop offset="1" stop-color="#7B7B7B"/>
</linearGradient>
</defs>
</svg>
