<svg width="1600" height="930" viewBox="0 0 1600 930" fill="none" xmlns="http://www.w3.org/2000/svg">
<g clip-path="url(#clip0_176_347)">
<rect width="1600" height="930" fill="#0F0F10"/>
<g clip-path="url(#clip1_176_347)">
<path fill-rule="evenodd" clip-rule="evenodd" d="M106.687 89.4819C116.485 89.4819 124.428 81.539 124.428 71.741C124.428 61.9429 116.485 54 106.687 54C96.8886 54 88.9457 61.9429 88.9457 71.741C88.9457 73.4834 89.1969 75.1672 89.6651 76.758L102.213 72.1951L108.469 69.9202L107.127 76.4402L104.47 89.3448C105.196 89.4353 105.936 89.4819 106.687 89.4819ZM100.847 88.4984L102.603 79.9678L103.484 75.6902L99.3798 77.1827L91.0874 80.1981C93.1793 84.0484 96.6551 87.0377 100.847 88.4984Z" fill="#FF0000"/>
<path d="M103.484 75.6902L54.9038 93.3558L80.6691 102.893L93.1792 125.743L103.484 75.6902Z" fill="#0674B7"/>
<path d="M180.344 108.795C178.283 104.172 176.221 99.4863 174.159 94.8632H150.356C148.295 99.4863 146.233 104.172 144.171 108.795H140.735C147.233 94.2384 153.668 79.6194 160.165 65.0628H164.351C170.786 79.6194 177.283 94.2384 183.78 108.795H180.344ZM151.731 91.7394H172.785L162.227 68.0616L151.731 91.7394ZM220.779 72.997C216.905 69.311 212.22 67.6242 206.847 67.6242C196.226 67.6242 187.542 76.3082 187.542 86.9289C187.542 97.5496 196.226 106.234 206.847 106.234C212.22 106.234 216.905 104.547 220.779 100.861L223.153 102.922C218.717 107.296 213.157 109.357 206.847 109.357C194.477 109.357 184.419 99.2364 184.419 86.9289C184.419 74.6214 194.477 64.5005 206.847 64.5005C213.157 64.5005 218.717 66.5622 223.153 70.9979L220.779 72.997ZM246.67 108.795H243.546V68.1865H227.553V65.0628H262.726V68.1865H246.67V108.795ZM297.972 108.795C295.91 104.172 293.849 99.4863 291.787 94.8632H267.984C265.923 99.4863 263.861 104.172 261.799 108.795H258.363C264.861 94.2384 271.295 79.6194 277.793 65.0628H281.979C288.413 79.6194 294.911 94.2384 301.408 108.795H297.972ZM269.359 91.7394H290.413L279.854 68.0616L269.359 91.7394ZM337.193 108.795L308.892 69.8108V108.795H305.768V65.0628H309.329L337.818 104.297V65.0628H340.941V108.795H337.193ZM345.303 86.4291C345.303 74.3715 355.174 64.5005 367.232 64.5005C379.352 64.5005 389.223 74.3715 389.223 86.4291V87.3662C389.223 99.4863 379.352 109.357 367.232 109.357C355.174 109.357 345.303 99.4863 345.303 87.3662V86.4291ZM348.427 87.3662C348.427 97.737 356.923 106.234 367.232 106.234C377.602 106.234 386.099 97.737 386.099 87.3662V86.4291C386.099 76.1208 377.602 67.6242 367.232 67.6242C356.923 67.6242 348.427 76.1208 348.427 86.4291V87.3662ZM426.422 71.6226L423.923 73.3719C420.612 68.6238 414.864 67.4993 409.367 67.5618C404.119 67.6867 397.809 69.9358 397.871 76.1833C397.996 82.3058 405.243 83.9301 409.991 84.6798C417.363 85.9293 427.484 89.053 427.047 98.2993C426.61 107.421 417.176 109.607 409.617 109.357C401.432 109.045 397.059 106.733 393.623 99.1739L396.434 97.8619C399.371 104.359 402.744 106.046 409.742 106.234C415.364 106.483 423.673 105.296 423.986 98.1743C424.298 90.9273 415.052 88.6782 409.492 87.741C402.994 86.679 394.935 84.2425 394.81 76.3707C394.81 68.124 402.057 64.6879 409.304 64.5005C415.927 64.3756 422.486 65.9374 426.422 71.6226Z" fill="white"/>
</g>
<path d="M59.472 537L54.36 519.816H56.16L59.64 531.624C59.88 532.464 60.096 533.328 60.312 534.456C60.6 533.208 60.84 532.464 61.104 531.624L64.848 519.816H66.648L70.392 531.624C70.656 532.488 70.896 533.352 71.16 534.456C71.424 533.136 71.64 532.296 71.832 531.648L75.384 519.816H77.136L71.976 537H70.344L65.736 522.408L61.128 537H59.472ZM91.7884 537H81.4924V519.816H91.7644V521.4H83.2204V527.592H90.9724V529.152H83.2204V535.416H91.7884V537ZM305.008 524.28C305.008 521.4 307.312 519.504 310.768 519.504C313.864 519.504 315.905 521.232 316.168 524.112H314.416C314.225 522.168 312.905 521.064 310.744 521.064C308.32 521.064 306.736 522.312 306.736 524.256C306.736 525.768 307.624 526.728 309.424 527.184L312.376 527.904C315.065 528.552 316.457 530.088 316.457 532.416C316.457 535.392 314.152 537.288 310.6 537.288C307.264 537.288 305.008 535.536 304.792 532.728H306.568C306.664 534.528 308.248 535.704 310.6 535.704C313.121 535.704 314.729 534.48 314.729 532.512C314.729 530.976 313.864 529.968 312.016 529.536L309.112 528.816C306.424 528.168 305.008 526.632 305.008 524.28ZM336.796 528.408C336.796 533.616 333.412 537.288 328.612 537.288C323.788 537.288 320.428 533.616 320.428 528.408C320.428 523.2 323.812 519.504 328.612 519.504C333.436 519.504 336.796 523.176 336.796 528.408ZM335.02 528.408C335.02 524.112 332.404 521.184 328.612 521.184C324.82 521.184 322.228 524.112 322.228 528.408C322.228 532.704 324.82 535.632 328.612 535.632C332.404 535.632 335.02 532.68 335.02 528.408ZM350.609 529.44H343.577V537H341.849V519.816H351.977V521.4H343.577V527.88H350.609V529.44ZM355 521.4V519.816H367.312V521.4H362.008V537H360.28V521.4H355ZM375.23 537L370.118 519.816H371.918L375.398 531.624C375.638 532.464 375.854 533.328 376.07 534.456C376.358 533.208 376.598 532.464 376.862 531.624L380.606 519.816H382.406L386.15 531.624C386.414 532.488 386.654 533.352 386.918 534.456C387.182 533.136 387.398 532.296 387.59 531.648L391.142 519.816H392.894L387.734 537H386.102L381.494 522.408L376.886 537H375.23ZM395.586 537H393.834L400.146 519.816H402.282L408.666 537H406.866L405.186 532.44H397.266L395.586 537ZM400.986 522.24L397.794 530.928H404.634L401.418 522.24C401.346 522 401.226 521.712 401.202 521.544C401.178 521.688 401.082 522 400.986 522.24ZM414.703 537H412.975V519.816H419.383C422.863 519.816 424.975 521.736 424.975 524.784C424.975 527.256 423.679 528.984 421.471 529.584L425.143 537H423.223L419.719 529.872H414.703V537ZM414.703 521.376V528.312H419.431C421.807 528.312 423.199 527.016 423.199 524.832C423.199 522.6 421.735 521.376 419.383 521.376H414.703ZM440.542 537H430.246V519.816H440.518V521.4H431.974V527.592H439.726V529.152H431.974V535.416H440.542V537ZM463.307 529.44H456.275V537H454.547V519.816H464.675V521.4H456.275V527.88H463.307V529.44ZM484.81 528.408C484.81 533.616 481.426 537.288 476.626 537.288C471.802 537.288 468.442 533.616 468.442 528.408C468.442 523.2 471.826 519.504 476.626 519.504C481.45 519.504 484.81 523.176 484.81 528.408ZM483.034 528.408C483.034 524.112 480.418 521.184 476.626 521.184C472.834 521.184 470.242 524.112 470.242 528.408C470.242 532.704 472.834 535.632 476.626 535.632C480.418 535.632 483.034 532.68 483.034 528.408ZM491.592 537H489.864V519.816H496.272C499.752 519.816 501.864 521.736 501.864 524.784C501.864 527.256 500.568 528.984 498.36 529.584L502.032 537H500.112L496.608 529.872H491.592V537ZM491.592 521.376V528.312H496.32C498.696 528.312 500.088 527.016 500.088 524.832C500.088 522.6 498.624 521.376 496.272 521.376H491.592Z" fill="white"/>
<path d="M105.793 537V519.816H112.081C115.393 519.816 117.433 521.496 117.433 524.256C117.433 526.272 116.545 527.64 114.769 528.336C116.761 528.984 117.769 530.376 117.769 532.488C117.769 535.248 115.705 537 112.441 537H105.793ZM112.057 521.352H107.521V527.64H112.273C114.433 527.64 115.657 526.44 115.657 524.4C115.657 522.48 114.361 521.352 112.057 521.352ZM112.441 529.152H107.521V535.44H112.441C114.697 535.44 116.017 534.264 116.017 532.272C116.017 530.328 114.673 529.152 112.441 529.152ZM122.687 531.024V519.816H124.415V530.952C124.415 533.976 126.071 535.608 129.071 535.608C131.999 535.608 133.655 533.928 133.655 530.952V519.816H135.383V531.024C135.383 534.912 132.983 537.288 129.071 537.288C125.087 537.288 122.687 534.936 122.687 531.024ZM143.096 519.816V537H141.368V519.816H143.096ZM150.922 519.816V535.416H158.818V537H149.194V519.816H150.922ZM168.557 537H163.325V519.816H168.509C173.693 519.816 177.149 523.272 177.149 528.408C177.149 533.544 173.717 537 168.557 537ZM168.437 521.4H165.053V535.416H168.485C172.685 535.416 175.373 532.68 175.373 528.408C175.373 524.112 172.685 521.4 168.437 521.4ZM202.04 537L200.504 535.224C199.16 536.568 197.288 537.312 195.032 537.312C191.408 537.312 189.056 535.464 189.056 532.632C189.056 530.448 190.352 528.84 193.448 527.16C191.888 525.336 191.264 524.304 191.264 523.032C191.264 520.968 192.824 519.528 195.152 519.528C197.36 519.528 198.872 520.872 198.872 522.888C198.872 524.592 197.984 525.912 195.704 527.448L200.384 532.848C200.864 531.84 201.128 530.592 201.128 529.152H202.736C202.736 531.072 202.28 532.728 201.44 534.048L204.008 537H202.04ZM194.816 526.416L194.84 526.44C196.52 525.384 197.288 524.28 197.288 522.936C197.288 521.688 196.472 520.92 195.128 520.92C193.736 520.92 192.872 521.736 192.872 523.032C192.872 523.896 193.256 524.616 194.816 526.416ZM190.76 532.536C190.76 534.624 192.392 535.872 195.128 535.872C197.024 535.872 198.512 535.272 199.544 534.12L194.312 528.144C191.72 529.584 190.76 530.784 190.76 532.536ZM214.903 524.28C214.903 521.4 217.207 519.504 220.663 519.504C223.759 519.504 225.799 521.232 226.063 524.112H224.311C224.119 522.168 222.799 521.064 220.639 521.064C218.215 521.064 216.631 522.312 216.631 524.256C216.631 525.768 217.519 526.728 219.319 527.184L222.271 527.904C224.959 528.552 226.351 530.088 226.351 532.416C226.351 535.392 224.047 537.288 220.495 537.288C217.159 537.288 214.903 535.536 214.687 532.728H216.463C216.559 534.528 218.143 535.704 220.495 535.704C223.015 535.704 224.623 534.48 224.623 532.512C224.623 530.976 223.759 529.968 221.911 529.536L219.007 528.816C216.319 528.168 214.903 526.632 214.903 524.28ZM238.386 537.264C233.586 537.264 230.322 533.688 230.322 528.408C230.322 523.128 233.634 519.528 238.482 519.528C242.178 519.528 245.082 521.76 245.778 525.168H243.93C243.21 522.696 241.098 521.184 238.41 521.184C234.642 521.184 232.122 524.064 232.122 528.408C232.122 532.728 234.642 535.608 238.41 535.608C241.122 535.608 243.282 534.144 244.026 531.84H245.874C245.082 535.08 242.082 537.264 238.386 537.264ZM250.22 537H248.468L254.78 519.816H256.916L263.3 537H261.5L259.82 532.44H251.9L250.22 537ZM255.62 522.24L252.428 530.928H259.268L256.052 522.24C255.98 522 255.86 521.712 255.836 521.544C255.812 521.688 255.716 522 255.62 522.24ZM269.337 519.816V535.416H277.233V537H267.609V519.816H269.337ZM292.036 537H281.74V519.816H292.012V521.4H283.468V527.592H291.22V529.152H283.468V535.416H292.036V537Z" fill="#FF0000"/>
<path d="M58.5616 588.818C58.5616 576.378 68.514 568.187 83.4428 568.187C96.8164 568.187 105.629 575.652 106.769 588.092H99.2009C98.3715 579.695 92.6696 574.926 83.3391 574.926C72.8683 574.926 66.0259 580.317 66.0259 588.714C66.0259 595.246 69.8618 599.393 77.6372 601.362L90.3888 604.473C102 607.272 108.013 613.907 108.013 623.963C108.013 636.818 98.0605 645.008 82.7171 645.008C68.3067 645.008 58.5616 637.44 57.6285 625.311H65.3002C65.7149 633.086 72.5572 638.166 82.7171 638.166C93.6026 638.166 100.549 632.879 100.549 624.378C100.549 617.743 96.8164 613.388 88.8337 611.522L76.2894 608.412C64.6782 605.613 58.5616 598.978 58.5616 588.818ZM131.389 643.764H124.339V599.6H114.283V593.587H124.339V577.725H131.389V593.587H141.445V599.6H131.389V643.764ZM164.36 645.008C153.682 645.008 147.358 638.995 147.358 630.183C147.358 620.956 154.408 615.151 166.123 614.218L182.71 612.87V611.211C182.71 601.362 176.801 598.252 169.44 598.252C160.732 598.252 155.548 602.192 155.548 608.93H149.017C149.017 598.771 157.311 592.239 169.647 592.239C181.259 592.239 189.76 598.045 189.76 611.315V643.764H183.747L182.814 634.952C179.704 641.276 172.861 645.008 164.36 645.008ZM166.019 639.203C176.593 639.203 182.71 631.842 182.71 620.956V618.261L167.885 619.401C158.451 620.231 154.615 624.378 154.615 629.976C154.615 636.092 159.177 639.203 166.019 639.203ZM230.343 592.965V599.393H226.404C217.177 599.393 211.268 605.613 211.268 615.151V643.764H204.114V593.587H210.853L211.371 601.362C213.341 595.971 218.628 592.447 225.678 592.447C227.233 592.447 228.581 592.55 230.343 592.965ZM253.385 643.764H246.335V599.6H236.279V593.587H246.335V577.725H253.385V593.587H263.441V599.6H253.385V643.764ZM308.005 593.587H315.158V643.764H308.938L308.005 635.263C305.206 641.069 298.26 645.008 290.381 645.008C278.562 645.008 272.134 636.922 272.134 624.689V593.483H279.391V622.408C279.391 634.33 284.679 638.581 292.661 638.581C302.303 638.581 308.005 632.153 308.005 620.231V593.587ZM330.059 665.639V593.587H336.28L337.005 603.747C340.53 595.971 347.58 592.239 355.977 592.239C370.491 592.239 379.2 603.332 379.2 618.468C379.2 633.604 370.802 645.008 355.977 645.008C347.476 645.008 340.737 641.38 337.213 634.123V665.639H330.059ZM337.316 618.676C337.316 630.183 343.744 638.581 354.733 638.581C365.619 638.581 371.943 630.183 371.943 618.676C371.943 607.064 365.619 598.771 354.733 598.771C343.744 598.771 337.316 607.064 337.316 618.676ZM386.351 629.665H393.194C393.194 635.47 397.548 639.099 404.598 639.099C412.373 639.099 416.935 635.781 416.935 630.391C416.935 626.244 414.861 623.859 408.952 622.408L400.347 620.231C391.639 618.054 387.388 613.492 387.388 606.65C387.388 597.838 394.749 592.239 405.531 592.239C416.105 592.239 422.948 598.045 423.259 607.375H416.313C416.105 601.57 412.062 598.149 405.323 598.149C398.274 598.149 394.334 601.155 394.334 606.546C394.334 610.382 397.03 613.077 402.524 614.425L411.129 616.602C419.837 618.779 423.777 622.822 423.777 630.079C423.777 639.099 416.105 645.008 404.701 645.008C393.401 645.008 386.351 638.995 386.351 629.665ZM514.559 643.764L507.924 636.092C502.118 641.898 494.032 645.112 484.286 645.112C468.632 645.112 458.472 637.129 458.472 624.896C458.472 615.462 464.07 608.516 477.444 601.259C470.705 593.38 468.01 588.922 468.01 583.427C468.01 574.511 474.749 568.291 484.805 568.291C494.343 568.291 500.874 574.097 500.874 582.805C500.874 590.166 497.038 595.868 487.189 602.503L507.405 625.829C509.479 621.475 510.619 616.084 510.619 609.863H517.565C517.565 618.157 515.595 625.311 511.967 631.013L523.06 643.764H514.559ZM483.353 598.045L483.457 598.149C490.714 593.587 494.032 588.818 494.032 583.013C494.032 577.622 490.507 574.304 484.701 574.304C478.688 574.304 474.956 577.829 474.956 583.427C474.956 587.159 476.615 590.27 483.353 598.045ZM465.833 624.481C465.833 633.501 472.883 638.892 484.701 638.892C492.891 638.892 499.319 636.3 503.777 631.324L481.176 605.509C469.98 611.73 465.833 616.913 465.833 624.481ZM70.4838 673.535V747.764H63.0194V673.535H70.4838ZM94.1307 747.764H86.9773V697.587H93.1976L94.2344 706.295C97.5519 699.868 104.187 696.239 111.444 696.239C125.232 696.239 130.934 704.429 130.934 717.077V747.764H123.781V718.632C123.781 706.917 118.494 702.771 110.2 702.771C99.9363 702.771 94.1307 710.235 94.1307 721.535V747.764ZM152.345 747.764H145.191V697.587H151.412L152.448 706.295C155.766 699.868 162.401 696.239 169.658 696.239C183.446 696.239 189.148 704.429 189.148 717.077V747.764H181.995V718.632C181.995 706.917 176.708 702.771 168.414 702.771C158.15 702.771 152.345 710.235 152.345 721.535V747.764ZM199.881 722.676C199.881 707.332 210.663 696.239 225.384 696.239C240.105 696.239 250.887 707.332 250.887 722.676C250.887 737.915 240.105 749.008 225.384 749.008C210.663 749.008 199.881 737.915 199.881 722.676ZM207.138 722.572C207.138 734.391 214.602 742.581 225.384 742.581C236.062 742.581 243.63 734.391 243.63 722.572C243.63 710.961 236.062 702.667 225.384 702.667C214.602 702.667 207.138 710.961 207.138 722.572ZM274.097 747.764L253.57 697.587H261.241L274.2 729.933C275.548 733.561 276.896 736.982 277.829 740.3C278.762 736.879 280.11 733.561 281.561 729.933L294.727 697.587H302.088L281.25 747.764H274.097ZM322.703 749.008C312.024 749.008 305.7 742.995 305.7 734.183C305.7 724.956 312.75 719.151 324.465 718.218L341.053 716.87V715.211C341.053 705.362 335.143 702.252 327.783 702.252C319.074 702.252 313.891 706.192 313.891 712.93H307.359C307.359 702.771 315.653 696.239 327.99 696.239C339.601 696.239 348.102 702.045 348.102 715.315V747.764H342.089L341.156 738.952C338.046 745.276 331.204 749.008 322.703 749.008ZM324.361 743.203C334.936 743.203 341.053 735.842 341.053 724.956V722.261L326.227 723.401C316.793 724.231 312.957 728.378 312.957 733.976C312.957 740.092 317.519 743.203 324.361 743.203ZM373.053 747.764H366.003V703.6H355.947V697.587H366.003V681.725H373.053V697.587H383.109V703.6H373.053V747.764ZM395.949 683.799C393.046 683.799 390.662 681.414 390.662 678.511C390.662 675.609 393.046 673.12 395.949 673.12C398.852 673.12 401.34 675.609 401.34 678.511C401.34 681.414 398.852 683.799 395.949 683.799ZM392.424 747.764V697.587H399.578V747.764H392.424ZM428.491 747.764L407.964 697.587H415.635L428.594 729.933C429.942 733.561 431.29 736.982 432.223 740.3C433.156 736.879 434.504 733.561 435.955 729.933L449.121 697.587H456.482L435.644 747.764H428.491ZM483.732 749.008C469.01 749.008 459.161 738.434 459.161 722.676C459.161 707.021 468.907 696.239 483.213 696.239C496.794 696.239 506.021 705.881 506.021 720.084V723.609H466.107C466.626 735.842 473.053 742.892 483.835 742.892C492.025 742.892 497.313 739.367 499.179 732.732H506.021C503.326 743.306 495.55 749.008 483.732 749.008ZM483.213 702.356C473.779 702.356 467.559 708.576 466.315 718.425H498.868C498.868 708.784 492.647 702.356 483.213 702.356ZM547.766 747.764V673.535H574.928C589.235 673.535 598.047 680.792 598.047 692.714C598.047 701.423 594.211 707.332 586.539 710.339C595.144 713.138 599.498 719.151 599.498 728.274C599.498 740.196 590.582 747.764 576.483 747.764H547.766ZM574.824 680.17H555.23V707.332H575.757C585.088 707.332 590.375 702.149 590.375 693.336C590.375 685.043 584.777 680.17 574.824 680.17ZM576.483 713.863H555.23V741.025H576.483C586.228 741.025 591.93 735.946 591.93 727.341C591.93 718.943 586.125 713.863 576.483 713.863ZM637.64 696.965V703.393H633.7C624.473 703.393 618.564 709.613 618.564 719.151V747.764H611.411V697.587H618.149L618.668 705.362C620.638 699.971 625.925 696.447 632.974 696.447C634.53 696.447 635.877 696.55 637.64 696.965ZM659.535 749.008C648.856 749.008 642.532 742.995 642.532 734.183C642.532 724.956 649.582 719.151 661.297 718.218L677.885 716.87V715.211C677.885 705.362 671.975 702.252 664.615 702.252C655.906 702.252 650.723 706.192 650.723 712.93H644.191C644.191 702.771 652.485 696.239 664.822 696.239C676.433 696.239 684.934 702.045 684.934 715.315V747.764H678.921L677.988 738.952C674.878 745.276 668.036 749.008 659.535 749.008ZM661.193 743.203C671.768 743.203 677.885 735.842 677.885 724.956V722.261L663.059 723.401C653.625 724.231 649.79 728.378 649.79 733.976C649.79 740.092 654.351 743.203 661.193 743.203ZM706.442 747.764H699.289V697.587H705.509L706.546 706.295C709.863 699.868 716.498 696.239 723.755 696.239C737.544 696.239 743.246 704.429 743.246 717.077V747.764H736.092V718.632C736.092 706.917 730.805 702.771 722.511 702.771C712.248 702.771 706.442 710.235 706.442 721.535V747.764ZM777.2 749.008C762.583 749.008 753.978 737.812 753.978 722.779C753.978 707.643 762.583 696.239 777.511 696.239C785.805 696.239 792.44 699.868 795.965 707.125V672.187H803.118V747.764H796.898L796.172 737.501C792.648 745.276 785.598 749.008 777.2 749.008ZM778.445 742.477C789.434 742.477 795.861 734.183 795.861 722.572C795.861 711.064 789.434 702.667 778.445 702.667C767.559 702.667 761.235 711.064 761.235 722.572C761.235 734.183 767.559 742.477 778.445 742.477ZM813.795 733.665H820.637C820.637 739.47 824.992 743.099 832.041 743.099C839.817 743.099 844.378 739.781 844.378 734.391C844.378 730.244 842.305 727.859 836.395 726.408L827.791 724.231C819.082 722.054 814.832 717.492 814.832 710.65C814.832 701.838 822.192 696.239 832.974 696.239C843.549 696.239 850.391 702.045 850.702 711.375H843.756C843.549 705.57 839.506 702.149 832.767 702.149C825.717 702.149 821.778 705.155 821.778 710.546C821.778 714.382 824.473 717.077 829.968 718.425L838.573 720.602C847.281 722.779 851.221 726.822 851.221 734.079C851.221 743.099 843.549 749.008 832.145 749.008C820.845 749.008 813.795 742.995 813.795 733.665Z" fill="url(#paint0_linear_176_347)"/>
<path d="M56.768 874L54.208 866.176H55.76L57.056 870.24C57.232 870.816 57.392 871.408 57.536 872.096C57.664 871.408 57.872 870.752 58.048 870.24L59.36 866.176H60.896L62.192 870.24C62.32 870.624 62.576 871.536 62.704 872.096C62.832 871.472 62.976 870.928 63.2 870.24L64.512 866.176H66.08L63.408 874H61.984L60.624 869.808C60.368 869.024 60.208 868.416 60.128 867.984C60.048 868.368 59.904 868.88 59.616 869.824L58.256 874H56.768ZM69.0493 874L66.4893 866.176H68.0413L69.3373 870.24C69.5133 870.816 69.6733 871.408 69.8173 872.096C69.9453 871.408 70.1533 870.752 70.3293 870.24L71.6413 866.176H73.1773L74.4733 870.24C74.6013 870.624 74.8573 871.536 74.9853 872.096C75.1133 871.472 75.2573 870.928 75.4813 870.24L76.7933 866.176H78.3613L75.6892 874H74.2653L72.9053 869.808C72.6493 869.024 72.4893 868.416 72.4093 867.984C72.3293 868.368 72.1853 868.88 71.8973 869.824L70.5373 874H69.0493ZM81.3305 874L78.7705 866.176H80.3225L81.6185 870.24C81.7945 870.816 81.9545 871.408 82.0985 872.096C82.2265 871.408 82.4345 870.752 82.6105 870.24L83.9225 866.176H85.4585L86.7545 870.24C86.8825 870.624 87.1385 871.536 87.2665 872.096C87.3945 871.472 87.5385 870.928 87.7625 870.24L89.0745 866.176H90.6425L87.9705 874H86.5465L85.1865 869.808C84.9305 869.024 84.7705 868.416 84.6905 867.984C84.6105 868.368 84.4665 868.88 84.1785 869.824L82.8185 874H81.3305ZM91.7861 874.192C91.1621 874.192 90.6341 873.68 90.6341 873.072C90.6341 872.448 91.1621 871.936 91.7861 871.936C92.3941 871.936 92.9221 872.448 92.9221 873.072C92.9221 873.68 92.3941 874.192 91.7861 874.192ZM97.2198 874.192C95.5398 874.192 94.5478 873.248 94.5478 871.824C94.5478 870.384 95.6198 869.488 97.4598 869.344L99.9238 869.152V868.928C99.9238 867.616 99.1398 867.152 98.0838 867.152C96.8198 867.152 96.0998 867.712 96.0998 868.656H94.7878C94.7878 867.024 96.1318 865.952 98.1478 865.952C100.084 865.952 101.396 866.976 101.396 869.088V874H100.116L99.9558 872.736C99.5558 873.632 98.4838 874.192 97.2198 874.192ZM97.6518 873.024C99.0758 873.024 99.9398 872.096 99.9398 870.624V870.208L97.9398 870.368C96.6118 870.496 96.0678 871.008 96.0678 871.776C96.0678 872.608 96.6758 873.024 97.6518 873.024ZM102.967 870.096C102.967 867.648 104.519 865.952 106.807 865.952C108.775 865.952 110.151 867.072 110.423 868.816H108.919C108.663 867.824 107.863 867.296 106.855 867.296C105.431 867.296 104.455 868.384 104.455 870.08C104.455 871.76 105.367 872.848 106.791 872.848C107.863 872.848 108.663 872.288 108.935 871.36H110.439C110.135 873.056 108.679 874.192 106.791 874.192C104.487 874.192 102.967 872.56 102.967 870.096ZM114.234 874H112.73V867.44H111.194V866.176H112.73V863.728H114.234V866.176H115.77V867.44H114.234V874ZM119.314 874.192C117.634 874.192 116.642 873.248 116.642 871.824C116.642 870.384 117.714 869.488 119.554 869.344L122.018 869.152V868.928C122.018 867.616 121.234 867.152 120.178 867.152C118.914 867.152 118.194 867.712 118.194 868.656H116.882C116.882 867.024 118.226 865.952 120.242 865.952C122.178 865.952 123.49 866.976 123.49 869.088V874H122.21L122.05 872.736C121.65 873.632 120.578 874.192 119.314 874.192ZM119.746 873.024C121.17 873.024 122.034 872.096 122.034 870.624V870.208L120.034 870.368C118.706 870.496 118.162 871.008 118.162 871.776C118.162 872.608 118.77 873.024 119.746 873.024ZM127.076 874H125.572V866.176H126.932L127.092 867.376C127.588 866.48 128.58 865.952 129.684 865.952C131.748 865.952 132.692 867.216 132.692 869.216V874H131.188V869.552C131.188 867.968 130.452 867.328 129.3 867.328C127.892 867.328 127.076 868.336 127.076 869.856V874ZM134.264 870.08C134.264 867.664 135.992 865.968 138.344 865.968C140.68 865.968 142.408 867.664 142.408 870.08C142.408 872.496 140.68 874.192 138.344 874.192C135.992 874.192 134.264 872.496 134.264 870.08ZM135.784 870.08C135.784 871.712 136.824 872.848 138.344 872.848C139.848 872.848 140.904 871.712 140.904 870.08C140.904 868.448 139.848 867.312 138.344 867.312C136.824 867.312 135.784 868.448 135.784 870.08ZM143.432 871.728H144.872C144.872 872.528 145.48 873.008 146.472 873.008C147.528 873.008 148.136 872.576 148.136 871.856C148.136 871.328 147.88 871.008 147.064 870.8L145.688 870.48C144.296 870.144 143.64 869.456 143.64 868.304C143.64 866.864 144.856 865.952 146.584 865.952C148.296 865.952 149.416 866.912 149.448 868.4H148.008C147.976 867.616 147.448 867.12 146.536 867.12C145.592 867.12 145.064 867.536 145.064 868.256C145.064 868.784 145.448 869.136 146.216 869.328L147.592 869.664C148.92 869.984 149.576 870.592 149.576 871.76C149.576 873.248 148.296 874.192 146.44 874.192C144.6 874.192 143.432 873.216 143.432 871.728ZM152.271 874.192C151.647 874.192 151.118 873.68 151.118 873.072C151.118 872.448 151.647 871.936 152.271 871.936C152.879 871.936 153.407 872.448 153.407 873.072C153.407 873.68 152.879 874.192 152.271 874.192ZM154.576 870.096C154.576 867.648 156.128 865.952 158.416 865.952C160.384 865.952 161.76 867.072 162.032 868.816H160.528C160.272 867.824 159.472 867.296 158.464 867.296C157.04 867.296 156.064 868.384 156.064 870.08C156.064 871.76 156.976 872.848 158.4 872.848C159.472 872.848 160.272 872.288 160.544 871.36H162.048C161.744 873.056 160.288 874.192 158.4 874.192C156.096 874.192 154.576 872.56 154.576 870.096ZM163.123 870.08C163.123 867.664 164.851 865.968 167.203 865.968C169.539 865.968 171.267 867.664 171.267 870.08C171.267 872.496 169.539 874.192 167.203 874.192C164.851 874.192 163.123 872.496 163.123 870.08ZM164.643 870.08C164.643 871.712 165.683 872.848 167.203 872.848C168.707 872.848 169.763 871.712 169.763 870.08C169.763 868.448 168.707 867.312 167.203 867.312C165.683 867.312 164.643 868.448 164.643 870.08ZM174.436 874H172.932V866.176H174.276L174.42 867.2C174.82 866.464 175.652 865.952 176.756 865.952C177.972 865.952 178.836 866.56 179.236 867.536C179.604 866.56 180.548 865.952 181.764 865.952C183.556 865.952 184.644 867.072 184.644 868.88V874H183.172V869.248C183.172 868.016 182.484 867.312 181.428 867.312C180.292 867.312 179.54 868.112 179.54 869.36V874H178.052V869.232C178.052 868 177.38 867.328 176.324 867.328C175.188 867.328 174.436 868.112 174.436 869.36V874Z" fill="white"/>
<path d="M1290.14 870.448C1290.14 869.168 1291.1 868.304 1292.83 868.176L1295.09 868V867.792C1295.09 866.72 1294.51 866.176 1293.39 866.176C1292.24 866.176 1291.58 866.672 1291.58 867.536H1290.37C1290.37 866.048 1291.58 865.072 1293.44 865.072C1295.34 865.072 1296.45 866.112 1296.45 867.936V870.72C1296.45 871.344 1296.75 871.648 1297.36 871.648C1298.34 871.648 1299.01 870.432 1299.01 868.64C1299.01 865.472 1296.69 863.216 1293.42 863.216C1290.22 863.216 1287.78 865.696 1287.78 868.928C1287.78 872.208 1290.21 874.688 1293.42 874.688C1294.69 874.688 1295.9 874.272 1296.91 873.504L1297.42 874.368C1296.29 875.232 1294.91 875.68 1293.42 875.68C1289.6 875.68 1286.7 872.784 1286.7 868.928C1286.7 865.12 1289.62 862.224 1293.42 862.224C1297.3 862.224 1300.08 864.912 1300.08 868.64C1300.08 870.992 1298.91 872.608 1297.2 872.608C1296.1 872.608 1295.41 872.112 1295.25 871.2C1294.86 872.064 1293.86 872.608 1292.66 872.608C1291.1 872.608 1290.14 871.776 1290.14 870.448ZM1291.54 870.4C1291.54 871.136 1292.05 871.52 1292.99 871.52C1294.3 871.52 1295.1 870.704 1295.1 869.344V868.976L1293.26 869.136C1292.08 869.232 1291.54 869.648 1291.54 870.4ZM1309.33 873.984L1301.52 874V872.8L1305.25 869.584C1307.12 867.968 1307.65 867.184 1307.65 865.952C1307.65 864.496 1306.81 863.632 1305.42 863.632C1304 863.632 1303.07 864.672 1303.04 866.32H1301.47C1301.52 863.84 1303.09 862.224 1305.44 862.224C1307.76 862.224 1309.25 863.632 1309.25 865.856C1309.25 867.504 1308.43 868.672 1306.38 870.448L1303.98 872.528H1309.33V873.984ZM1310.77 868.224C1310.77 864.64 1312.62 862.208 1315.54 862.208C1318.43 862.208 1320.29 864.64 1320.29 868.224C1320.29 871.824 1318.51 874.208 1315.54 874.208C1312.54 874.208 1310.77 871.824 1310.77 868.224ZM1312.32 868.224C1312.32 871.072 1313.5 872.8 1315.54 872.8C1317.57 872.8 1318.74 871.072 1318.74 868.224C1318.74 865.344 1317.57 863.616 1315.54 863.616C1313.5 863.616 1312.32 865.344 1312.32 868.224ZM1329.62 873.984L1321.81 874V872.8L1325.54 869.584C1327.41 867.968 1327.94 867.184 1327.94 865.952C1327.94 864.496 1327.11 863.632 1325.72 863.632C1324.29 863.632 1323.37 864.672 1323.33 866.32H1321.77C1321.81 863.84 1323.38 862.224 1325.73 862.224C1328.05 862.224 1329.54 863.632 1329.54 865.856C1329.54 867.504 1328.73 868.672 1326.68 870.448L1324.28 872.528H1329.62V873.984ZM1339.38 871.664H1338V874H1336.5V871.664H1330.51V870.272L1335.97 862.432H1338V870.272H1339.38V871.664ZM1332.21 870.272H1336.5V864.096L1332.21 870.272ZM1341.96 874H1340.33L1344.56 862.432H1346.3L1350.54 874H1348.89L1347.85 871.12H1342.99L1341.96 874ZM1345.23 864.928L1343.47 869.76H1347.39L1345.61 864.928C1345.53 864.704 1345.45 864.432 1345.42 864.256C1345.39 864.416 1345.31 864.688 1345.23 864.928ZM1351.01 870.096C1351.01 867.648 1352.57 865.952 1354.85 865.952C1356.82 865.952 1358.2 867.072 1358.47 868.816H1356.97C1356.71 867.824 1355.91 867.296 1354.9 867.296C1353.48 867.296 1352.5 868.384 1352.5 870.08C1352.5 871.76 1353.41 872.848 1354.84 872.848C1355.91 872.848 1356.71 872.288 1356.98 871.36H1358.49C1358.18 873.056 1356.73 874.192 1354.84 874.192C1352.53 874.192 1351.01 872.56 1351.01 870.096ZM1362.28 874H1360.78V867.44H1359.24V866.176H1360.78V863.728H1362.28V866.176H1363.82V867.44H1362.28V874ZM1367.36 874.192C1365.68 874.192 1364.69 873.248 1364.69 871.824C1364.69 870.384 1365.76 869.488 1367.6 869.344L1370.06 869.152V868.928C1370.06 867.616 1369.28 867.152 1368.22 867.152C1366.96 867.152 1366.24 867.712 1366.24 868.656H1364.93C1364.93 867.024 1366.27 865.952 1368.29 865.952C1370.22 865.952 1371.54 866.976 1371.54 869.088V874H1370.26L1370.1 872.736C1369.7 873.632 1368.62 874.192 1367.36 874.192ZM1367.79 873.024C1369.22 873.024 1370.08 872.096 1370.08 870.624V870.208L1368.08 870.368C1366.75 870.496 1366.21 871.008 1366.21 871.776C1366.21 872.608 1366.82 873.024 1367.79 873.024ZM1375.12 874H1373.62V866.176H1374.98L1375.14 867.376C1375.64 866.48 1376.63 865.952 1377.73 865.952C1379.8 865.952 1380.74 867.216 1380.74 869.216V874H1379.24V869.552C1379.24 867.968 1378.5 867.328 1377.35 867.328C1375.94 867.328 1375.12 868.336 1375.12 869.856V874ZM1382.31 870.08C1382.31 867.664 1384.04 865.968 1386.39 865.968C1388.73 865.968 1390.45 867.664 1390.45 870.08C1390.45 872.496 1388.73 874.192 1386.39 874.192C1384.04 874.192 1382.31 872.496 1382.31 870.08ZM1383.83 870.08C1383.83 871.712 1384.87 872.848 1386.39 872.848C1387.89 872.848 1388.95 871.712 1388.95 870.08C1388.95 868.448 1387.89 867.312 1386.39 867.312C1384.87 867.312 1383.83 868.448 1383.83 870.08ZM1391.48 871.728H1392.92C1392.92 872.528 1393.53 873.008 1394.52 873.008C1395.58 873.008 1396.18 872.576 1396.18 871.856C1396.18 871.328 1395.93 871.008 1395.11 870.8L1393.74 870.48C1392.34 870.144 1391.69 869.456 1391.69 868.304C1391.69 866.864 1392.9 865.952 1394.63 865.952C1396.34 865.952 1397.46 866.912 1397.5 868.4H1396.06C1396.02 867.616 1395.5 867.12 1394.58 867.12C1393.64 867.12 1393.11 867.536 1393.11 868.256C1393.11 868.784 1393.5 869.136 1394.26 869.328L1395.64 869.664C1396.97 869.984 1397.62 870.592 1397.62 871.76C1397.62 873.248 1396.34 874.192 1394.49 874.192C1392.65 874.192 1391.48 873.216 1391.48 871.728ZM1400.32 874.192C1399.69 874.192 1399.17 873.68 1399.17 873.072C1399.17 872.448 1399.69 871.936 1400.32 871.936C1400.93 871.936 1401.45 872.448 1401.45 873.072C1401.45 873.68 1400.93 874.192 1400.32 874.192ZM1408.73 874H1407.1L1411.32 862.432H1413.07L1417.31 874H1415.66L1414.62 871.12H1409.75L1408.73 874ZM1411.99 864.928L1410.23 869.76H1414.15L1412.38 864.928C1412.3 864.704 1412.22 864.432 1412.19 864.256C1412.15 864.416 1412.07 864.688 1411.99 864.928ZM1420.12 874H1418.62V862.224H1420.12V874ZM1423.87 874H1422.37V862.224H1423.87V874ZM1432.29 874H1430.72V862.432H1435.09C1437.57 862.432 1439.04 863.744 1439.04 865.904C1439.04 867.504 1438.24 868.656 1436.8 869.12L1439.15 874H1437.41L1435.25 869.424H1432.29V874ZM1432.29 863.84V868.032H1435.1C1436.56 868.032 1437.39 867.248 1437.39 865.92C1437.39 864.576 1436.53 863.84 1435.09 863.84H1432.29ZM1441.67 864.32C1441.12 864.32 1440.68 863.872 1440.68 863.328C1440.68 862.768 1441.12 862.336 1441.67 862.336C1442.21 862.336 1442.66 862.768 1442.66 863.328C1442.66 863.872 1442.21 864.32 1441.67 864.32ZM1440.93 874V866.176H1442.44V874H1440.93ZM1444.12 869.888C1444.12 867.68 1445.55 865.952 1447.82 865.952C1449.08 865.952 1450.06 866.528 1450.56 867.504L1450.67 866.176H1452.01V873.68C1452.01 876.144 1450.49 877.712 1448.09 877.712C1445.96 877.712 1444.51 876.512 1444.22 874.528H1445.72C1445.92 875.68 1446.78 876.352 1448.09 876.352C1449.56 876.352 1450.52 875.392 1450.52 873.904V872.336C1450.01 873.248 1448.99 873.792 1447.76 873.792C1445.53 873.792 1444.12 872.08 1444.12 869.888ZM1445.63 869.856C1445.63 871.328 1446.54 872.48 1448.01 872.48C1449.53 872.48 1450.46 871.392 1450.46 869.856C1450.46 868.352 1449.56 867.264 1448.03 867.264C1446.52 867.264 1445.63 868.416 1445.63 869.856ZM1455.69 873.984H1454.18V862.224H1455.69V867.376C1456.18 866.528 1457.13 865.952 1458.34 865.952C1460.34 865.952 1461.3 867.216 1461.3 869.216V874H1459.8V869.552C1459.8 867.968 1459.05 867.328 1457.93 867.328C1456.47 867.328 1455.69 868.384 1455.69 869.728V873.984ZM1465.59 874H1464.09V867.44H1462.55V866.176H1464.09V863.728H1465.59V866.176H1467.13V867.44H1465.59V874ZM1467.84 871.728H1469.28C1469.28 872.528 1469.89 873.008 1470.88 873.008C1471.93 873.008 1472.54 872.576 1472.54 871.856C1472.54 871.328 1472.29 871.008 1471.47 870.8L1470.09 870.48C1468.7 870.144 1468.05 869.456 1468.05 868.304C1468.05 866.864 1469.26 865.952 1470.99 865.952C1472.7 865.952 1473.82 866.912 1473.85 868.4H1472.41C1472.38 867.616 1471.85 867.12 1470.94 867.12C1470 867.12 1469.47 867.536 1469.47 868.256C1469.47 868.784 1469.85 869.136 1470.62 869.328L1472 869.664C1473.33 869.984 1473.98 870.592 1473.98 871.76C1473.98 873.248 1472.7 874.192 1470.85 874.192C1469.01 874.192 1467.84 873.216 1467.84 871.728ZM1481.85 874H1480.28V862.432H1484.65C1487.13 862.432 1488.6 863.744 1488.6 865.904C1488.6 867.504 1487.8 868.656 1486.36 869.12L1488.71 874H1486.97L1484.81 869.424H1481.85V874ZM1481.85 863.84V868.032H1484.67C1486.12 868.032 1486.95 867.248 1486.95 865.92C1486.95 864.576 1486.09 863.84 1484.65 863.84H1481.85ZM1493.31 874.192C1491 874.192 1489.42 872.528 1489.42 870.096C1489.42 867.648 1490.97 865.952 1493.24 865.952C1495.47 865.952 1496.92 867.488 1496.92 869.808V870.368L1490.88 870.384C1490.99 872.032 1491.85 872.944 1493.34 872.944C1494.51 872.944 1495.28 872.464 1495.53 871.568H1496.94C1496.56 873.248 1495.24 874.192 1493.31 874.192ZM1493.24 867.216C1491.93 867.216 1491.1 868 1490.91 869.376H1495.42C1495.42 868.08 1494.57 867.216 1493.24 867.216ZM1497.96 871.728H1499.4C1499.4 872.528 1500.01 873.008 1501 873.008C1502.06 873.008 1502.67 872.576 1502.67 871.856C1502.67 871.328 1502.41 871.008 1501.6 870.8L1500.22 870.48C1498.83 870.144 1498.17 869.456 1498.17 868.304C1498.17 866.864 1499.39 865.952 1501.12 865.952C1502.83 865.952 1503.95 866.912 1503.98 868.4H1502.54C1502.51 867.616 1501.98 867.12 1501.07 867.12C1500.12 867.12 1499.6 867.536 1499.6 868.256C1499.6 868.784 1499.98 869.136 1500.75 869.328L1502.12 869.664C1503.45 869.984 1504.11 870.592 1504.11 871.76C1504.11 873.248 1502.83 874.192 1500.97 874.192C1499.13 874.192 1497.96 873.216 1497.96 871.728ZM1509.15 874.192C1506.85 874.192 1505.26 872.528 1505.26 870.096C1505.26 867.648 1506.82 865.952 1509.09 865.952C1511.31 865.952 1512.77 867.488 1512.77 869.808V870.368L1506.72 870.384C1506.83 872.032 1507.7 872.944 1509.18 872.944C1510.35 872.944 1511.12 872.464 1511.38 871.568H1512.78C1512.4 873.248 1511.09 874.192 1509.15 874.192ZM1509.09 867.216C1507.78 867.216 1506.94 868 1506.75 869.376H1511.26C1511.26 868.08 1510.42 867.216 1509.09 867.216ZM1518.93 866.112V867.488H1518.26C1516.83 867.488 1515.95 868.352 1515.95 869.856V874H1514.45V866.192H1515.86L1515.95 867.376C1516.27 866.56 1517.06 866.016 1518.13 866.016C1518.4 866.016 1518.62 866.048 1518.93 866.112ZM1522.76 874L1519.61 866.176H1521.21L1522.92 870.544C1523.2 871.28 1523.42 871.936 1523.55 872.416C1523.68 871.904 1523.93 871.232 1524.2 870.544L1525.95 866.176H1527.52L1524.25 874H1522.76ZM1531.73 874.192C1529.43 874.192 1527.84 872.528 1527.84 870.096C1527.84 867.648 1529.39 865.952 1531.67 865.952C1533.89 865.952 1535.35 867.488 1535.35 869.808V870.368L1529.3 870.384C1529.41 872.032 1530.27 872.944 1531.76 872.944C1532.93 872.944 1533.7 872.464 1533.95 871.568H1535.36C1534.98 873.248 1533.67 874.192 1531.73 874.192ZM1531.67 867.216C1530.35 867.216 1529.52 868 1529.33 869.376H1533.84C1533.84 868.08 1532.99 867.216 1531.67 867.216ZM1540.16 874.192C1537.89 874.192 1536.51 872.496 1536.51 870.112C1536.51 867.712 1537.91 865.952 1540.23 865.952C1541.43 865.952 1542.43 866.48 1542.96 867.44V862.224H1544.45V874H1543.11L1542.98 872.576C1542.47 873.648 1541.41 874.192 1540.16 874.192ZM1540.47 872.832C1542 872.832 1542.95 871.696 1542.95 870.064C1542.95 868.464 1542 867.312 1540.47 867.312C1538.93 867.312 1538.03 868.464 1538.03 870.064C1538.03 871.68 1538.93 872.832 1540.47 872.832Z" fill="white"/>
<g filter="url(#filter0_f_176_347)">
<path d="M1366.3 34.3618C1385.97 -10.8542 1493.66 -13.8065 1545.04 -9.63059C1594.03 -9.63059 1692 -4.73607 1692 14.842C1692 39.3146 1654.81 89.1337 1620.02 96.7085C1585.23 104.283 1519.85 128.756 1498.26 150.024C1476.66 171.292 1454.47 236.843 1410.08 224.607C1365.7 212.371 1016 314.34 1016 293.072C1016 271.804 1128.77 227.52 1188.15 210.914C1247.53 194.307 1185.15 171.292 1188.15 128.756C1191.15 86.2203 1341.7 90.8817 1366.3 34.3618Z" fill="url(#paint1_linear_176_347)"/>
</g>
<g filter="url(#filter1_f_176_347)">
<ellipse cx="1427.5" cy="302.179" rx="46" ry="302.179" fill="#0075FF"/>
</g>
<rect x="1420" y="40" width="6" height="559" fill="#D9D9D9"/>
<g filter="url(#filter2_f_176_347)">
<path d="M1432.12 604.662L1434.93 610.41L1269 1138.19L891 819.191L1432.12 604.662Z" fill="#0075FF"/>
</g>
<g filter="url(#filter3_f_176_347)">
<path d="M1432.12 604.661L1434.93 610.409L999.031 925.766L973.456 890.526L1432.12 604.661Z" fill="#376EF8"/>
</g>
</g>
<defs>
<filter id="filter0_f_176_347" x="792" y="-235" width="1124" height="755" filterUnits="userSpaceOnUse" color-interpolation-filters="sRGB">
<feFlood flood-opacity="0" result="BackgroundImageFix"/>
<feBlend mode="normal" in="SourceGraphic" in2="BackgroundImageFix" result="shape"/>
<feGaussianBlur stdDeviation="112" result="effect1_foregroundBlur_176_347"/>
</filter>
<filter id="filter1_f_176_347" x="1168.5" y="-213" width="518" height="1030.36" filterUnits="userSpaceOnUse" color-interpolation-filters="sRGB">
<feFlood flood-opacity="0" result="BackgroundImageFix"/>
<feBlend mode="normal" in="SourceGraphic" in2="BackgroundImageFix" result="shape"/>
<feGaussianBlur stdDeviation="106.5" result="effect1_foregroundBlur_176_347"/>
</filter>
<filter id="filter2_f_176_347" x="411" y="124.662" width="1503.93" height="1493.53" filterUnits="userSpaceOnUse" color-interpolation-filters="sRGB">
<feFlood flood-opacity="0" result="BackgroundImageFix"/>
<feBlend mode="normal" in="SourceGraphic" in2="BackgroundImageFix" result="shape"/>
<feGaussianBlur stdDeviation="240" result="effect1_foregroundBlur_176_347"/>
</filter>
<filter id="filter3_f_176_347" x="926.456" y="557.661" width="555.477" height="415.105" filterUnits="userSpaceOnUse" color-interpolation-filters="sRGB">
<feFlood flood-opacity="0" result="BackgroundImageFix"/>
<feBlend mode="normal" in="SourceGraphic" in2="BackgroundImageFix" result="shape"/>
<feGaussianBlur stdDeviation="23.5" result="effect1_foregroundBlur_176_347"/>
</filter>
<linearGradient id="paint0_linear_176_347" x1="63.5" y1="608.5" x2="926.5" y2="737" gradientUnits="userSpaceOnUse">
<stop stop-color="white"/>
<stop offset="1" stop-color="#7B7B7B"/>
</linearGradient>
<linearGradient id="paint1_linear_176_347" x1="1575.5" y1="16" x2="1030" y2="279.5" gradientUnits="userSpaceOnUse">
<stop stop-color="#FF0000"/>
<stop offset="1" stop-color="#0674B7"/>
</linearGradient>
<clipPath id="clip0_176_347">
<rect width="1600" height="930" fill="white"/>
</clipPath>
<clipPath id="clip1_176_347">
<rect width="376.549" height="69.59" fill="white" transform="translate(54 54)"/>
</clipPath>
</defs>
</svg>
